%TF.GenerationSoftware,KiCad,Pcbnew,6.0.11-2627ca5db0~126~ubuntu22.04.1*%
%TF.CreationDate,2023-08-07T18:40:06+02:00*%
%TF.ProjectId,Qoobinoo,516f6f62-696e-46f6-9f2e-6b696361645f,rev?*%
%TF.SameCoordinates,Original*%
%TF.FileFunction,Drillmap*%
%TF.FilePolarity,Positive*%
%FSLAX45Y45*%
G04 Gerber Fmt 4.5, Leading zero omitted, Abs format (unit mm)*
G04 Created by KiCad (PCBNEW 6.0.11-2627ca5db0~126~ubuntu22.04.1) date 2023-08-07 18:40:06*
%MOMM*%
%LPD*%
G01*
G04 APERTURE LIST*
%ADD10C,0.100000*%
%ADD11C,0.200000*%
%ADD12C,0.040000*%
%ADD13C,0.055000*%
%ADD14C,0.093000*%
G04 APERTURE END LIST*
D10*
X14689000Y-5200000D02*
X14680000Y-5200000D01*
X17738000Y-5400000D02*
G75*
G03*
X17538000Y-5200000I-200000J0D01*
G01*
X12538000Y-5200000D02*
G75*
G03*
X12338000Y-5400000I0J-200000D01*
G01*
X15350000Y-5547000D02*
X14690000Y-5547000D01*
X15800000Y-5200000D02*
X17538000Y-5200000D01*
X17538000Y-13600000D02*
G75*
G03*
X17738000Y-13400000I0J200000D01*
G01*
X14690000Y-5547000D02*
X14689000Y-5200000D01*
X12338000Y-13400000D02*
G75*
G03*
X12538000Y-13600000I200000J0D01*
G01*
X17738000Y-5400000D02*
X17738000Y-13400000D01*
X12338000Y-5400000D02*
X12338000Y-13400000D01*
X14276000Y-5200000D02*
X14680000Y-5200000D01*
X14276000Y-5200000D02*
X12538000Y-5200000D01*
X15800000Y-5200000D02*
X15350000Y-5200000D01*
X15350000Y-5547000D02*
X15350000Y-5200000D01*
X17538000Y-13600000D02*
X12538000Y-13600000D01*
D11*
D12*
X12616000Y-9920000D02*
X12656000Y-9960000D01*
X12656000Y-9920000D02*
X12616000Y-9960000D01*
X12625000Y-9165000D02*
X12665000Y-9205000D01*
X12665000Y-9165000D02*
X12625000Y-9205000D01*
X12876000Y-8787000D02*
X12916000Y-8827000D01*
X12916000Y-8787000D02*
X12876000Y-8827000D01*
X12940550Y-10511000D02*
X12980550Y-10551000D01*
X12980550Y-10511000D02*
X12940550Y-10551000D01*
X13054000Y-8617000D02*
X13094000Y-8657000D01*
X13094000Y-8617000D02*
X13054000Y-8657000D01*
X13156000Y-8494000D02*
X13196000Y-8534000D01*
X13196000Y-8494000D02*
X13156000Y-8534000D01*
X13336000Y-9915000D02*
X13376000Y-9955000D01*
X13376000Y-9915000D02*
X13336000Y-9955000D01*
X13375000Y-6581000D02*
X13415000Y-6621000D01*
X13415000Y-6581000D02*
X13375000Y-6621000D01*
X13375031Y-9545408D02*
X13415031Y-9585408D01*
X13415031Y-9545408D02*
X13375031Y-9585408D01*
X13382000Y-8993000D02*
X13422000Y-9033000D01*
X13422000Y-8993000D02*
X13382000Y-9033000D01*
X13392000Y-5651000D02*
X13432000Y-5691000D01*
X13432000Y-5651000D02*
X13392000Y-5691000D01*
X13455628Y-9317628D02*
X13495628Y-9357628D01*
X13495628Y-9317628D02*
X13455628Y-9357628D01*
X13480031Y-9545408D02*
X13520031Y-9585408D01*
X13520031Y-9545408D02*
X13480031Y-9585408D01*
X13509000Y-9919000D02*
X13549000Y-9959000D01*
X13549000Y-9919000D02*
X13509000Y-9959000D01*
X13509000Y-13198000D02*
X13549000Y-13238000D01*
X13549000Y-13198000D02*
X13509000Y-13238000D01*
X13529000Y-8795000D02*
X13569000Y-8835000D01*
X13569000Y-8795000D02*
X13529000Y-8835000D01*
X13731000Y-8617000D02*
X13771000Y-8657000D01*
X13771000Y-8617000D02*
X13731000Y-8657000D01*
X13740000Y-12812000D02*
X13780000Y-12852000D01*
X13780000Y-12812000D02*
X13740000Y-12852000D01*
X13800000Y-9697000D02*
X13840000Y-9737000D01*
X13840000Y-9697000D02*
X13800000Y-9737000D01*
X13867000Y-7256000D02*
X13907000Y-7296000D01*
X13907000Y-7256000D02*
X13867000Y-7296000D01*
X13900000Y-5648000D02*
X13940000Y-5688000D01*
X13940000Y-5648000D02*
X13900000Y-5688000D01*
X13952000Y-9308000D02*
X13992000Y-9348000D01*
X13992000Y-9308000D02*
X13952000Y-9348000D01*
X13996000Y-6594000D02*
X14036000Y-6634000D01*
X14036000Y-6594000D02*
X13996000Y-6634000D01*
X14551000Y-9937000D02*
X14591000Y-9977000D01*
X14591000Y-9937000D02*
X14551000Y-9977000D01*
X14633500Y-9154500D02*
X14673500Y-9194500D01*
X14673500Y-9154500D02*
X14633500Y-9194500D01*
X14646000Y-11891000D02*
X14686000Y-11931000D01*
X14686000Y-11891000D02*
X14646000Y-11931000D01*
X14708000Y-9890000D02*
X14748000Y-9930000D01*
X14748000Y-9890000D02*
X14708000Y-9930000D01*
X14724000Y-12336000D02*
X14764000Y-12376000D01*
X14764000Y-12336000D02*
X14724000Y-12376000D01*
X14787000Y-7006000D02*
X14827000Y-7046000D01*
X14827000Y-7006000D02*
X14787000Y-7046000D01*
X14820000Y-10090000D02*
X14860000Y-10130000D01*
X14860000Y-10090000D02*
X14820000Y-10130000D01*
X14861000Y-9158000D02*
X14901000Y-9198000D01*
X14901000Y-9158000D02*
X14861000Y-9198000D01*
X14972792Y-10094792D02*
X15012792Y-10134792D01*
X15012792Y-10094792D02*
X14972792Y-10134792D01*
X15093000Y-8655000D02*
X15133000Y-8695000D01*
X15133000Y-8655000D02*
X15093000Y-8695000D01*
X15093000Y-8972000D02*
X15133000Y-9012000D01*
X15133000Y-8972000D02*
X15093000Y-9012000D01*
X15093000Y-9363000D02*
X15133000Y-9403000D01*
X15133000Y-9363000D02*
X15093000Y-9403000D01*
X15095000Y-9650000D02*
X15135000Y-9690000D01*
X15135000Y-9650000D02*
X15095000Y-9690000D01*
X15098000Y-6065000D02*
X15138000Y-6105000D01*
X15138000Y-6065000D02*
X15098000Y-6105000D01*
X15099132Y-9165868D02*
X15139132Y-9205868D01*
X15139132Y-9165868D02*
X15099132Y-9205868D01*
X15131000Y-11370000D02*
X15171000Y-11410000D01*
X15171000Y-11370000D02*
X15131000Y-11410000D01*
X15159000Y-10157000D02*
X15199000Y-10197000D01*
X15199000Y-10157000D02*
X15159000Y-10197000D01*
X15182000Y-10020000D02*
X15222000Y-10060000D01*
X15222000Y-10020000D02*
X15182000Y-10060000D01*
X15191000Y-12044000D02*
X15231000Y-12084000D01*
X15231000Y-12044000D02*
X15191000Y-12084000D01*
X15227000Y-7281000D02*
X15267000Y-7321000D01*
X15267000Y-7281000D02*
X15227000Y-7321000D01*
X15308132Y-9165868D02*
X15348132Y-9205868D01*
X15348132Y-9165868D02*
X15308132Y-9205868D01*
X15577132Y-9165868D02*
X15617132Y-9205868D01*
X15617132Y-9165868D02*
X15577132Y-9205868D01*
X15728000Y-9762000D02*
X15768000Y-9802000D01*
X15768000Y-9762000D02*
X15728000Y-9802000D01*
X15733000Y-12257000D02*
X15773000Y-12297000D01*
X15773000Y-12257000D02*
X15733000Y-12297000D01*
X15829000Y-7256000D02*
X15869000Y-7296000D01*
X15869000Y-7256000D02*
X15829000Y-7296000D01*
X15846000Y-9693000D02*
X15886000Y-9733000D01*
X15886000Y-9693000D02*
X15846000Y-9733000D01*
X15920000Y-8680000D02*
X15960000Y-8720000D01*
X15960000Y-8680000D02*
X15920000Y-8720000D01*
X15921000Y-8428664D02*
X15961000Y-8468664D01*
X15961000Y-8428664D02*
X15921000Y-8468664D01*
X15921000Y-8563000D02*
X15961000Y-8603000D01*
X15961000Y-8563000D02*
X15921000Y-8603000D01*
X15948000Y-7558000D02*
X15988000Y-7598000D01*
X15988000Y-7558000D02*
X15948000Y-7598000D01*
X16016000Y-5667000D02*
X16056000Y-5707000D01*
X16056000Y-5667000D02*
X16016000Y-5707000D01*
X16019000Y-9143000D02*
X16059000Y-9183000D01*
X16059000Y-9143000D02*
X16019000Y-9183000D01*
X16139000Y-10673000D02*
X16179000Y-10713000D01*
X16179000Y-10673000D02*
X16139000Y-10713000D01*
X16328000Y-11540000D02*
X16368000Y-11580000D01*
X16368000Y-11540000D02*
X16328000Y-11580000D01*
X16330000Y-12116000D02*
X16370000Y-12156000D01*
X16370000Y-12116000D02*
X16330000Y-12156000D01*
X16385000Y-8793000D02*
X16425000Y-8833000D01*
X16425000Y-8793000D02*
X16385000Y-8833000D01*
X16390000Y-6731000D02*
X16430000Y-6771000D01*
X16430000Y-6731000D02*
X16390000Y-6771000D01*
X16493000Y-13389000D02*
X16533000Y-13429000D01*
X16533000Y-13389000D02*
X16493000Y-13429000D01*
X16623000Y-10623000D02*
X16663000Y-10663000D01*
X16663000Y-10623000D02*
X16623000Y-10663000D01*
X16669000Y-12736000D02*
X16709000Y-12776000D01*
X16709000Y-12736000D02*
X16669000Y-12776000D01*
X16731000Y-7646000D02*
X16771000Y-7686000D01*
X16771000Y-7646000D02*
X16731000Y-7686000D01*
X16773000Y-8737000D02*
X16813000Y-8777000D01*
X16813000Y-8737000D02*
X16773000Y-8777000D01*
X16777000Y-9390000D02*
X16817000Y-9430000D01*
X16817000Y-9390000D02*
X16777000Y-9430000D01*
X16997000Y-8266000D02*
X17037000Y-8306000D01*
X17037000Y-8266000D02*
X16997000Y-8306000D01*
X17334000Y-6761000D02*
X17374000Y-6801000D01*
X17374000Y-6761000D02*
X17334000Y-6801000D01*
X17382000Y-8519000D02*
X17422000Y-8559000D01*
X17422000Y-8519000D02*
X17382000Y-8559000D01*
X17429000Y-9159000D02*
X17469000Y-9199000D01*
X17469000Y-9159000D02*
X17429000Y-9199000D01*
X14762500Y-5750000D02*
G75*
G03*
X14762500Y-5750000I-20000J0D01*
G01*
X14802500Y-5660000D02*
G75*
G03*
X14802500Y-5660000I-20000J0D01*
G01*
X14882500Y-5660000D02*
G75*
G03*
X14882500Y-5660000I-20000J0D01*
G01*
X14922500Y-5750000D02*
G75*
G03*
X14922500Y-5750000I-20000J0D01*
G01*
X14962500Y-5660000D02*
G75*
G03*
X14962500Y-5660000I-20000J0D01*
G01*
X15002500Y-5750000D02*
G75*
G03*
X15002500Y-5750000I-20000J0D01*
G01*
X15082500Y-5750000D02*
G75*
G03*
X15082500Y-5750000I-20000J0D01*
G01*
X15122500Y-5660000D02*
G75*
G03*
X15122500Y-5660000I-20000J0D01*
G01*
X15162500Y-5750000D02*
G75*
G03*
X15162500Y-5750000I-20000J0D01*
G01*
X15202500Y-5660000D02*
G75*
G03*
X15202500Y-5660000I-20000J0D01*
G01*
X15282500Y-5660000D02*
G75*
G03*
X15282500Y-5660000I-20000J0D01*
G01*
X15322500Y-5750000D02*
G75*
G03*
X15322500Y-5750000I-20000J0D01*
G01*
D13*
X14565000Y-5302500D02*
X14565000Y-5357500D01*
X14537500Y-5330000D02*
X14592500Y-5330000D01*
D11*
X14592500Y-5382500D02*
X14592500Y-5277500D01*
X14537500Y-5382500D02*
X14537500Y-5277500D01*
X14592500Y-5277500D02*
G75*
G03*
X14537500Y-5277500I-27500J0D01*
G01*
X14537500Y-5382500D02*
G75*
G03*
X14592500Y-5382500I27500J0D01*
G01*
D13*
X14593000Y-5805500D02*
X14593000Y-5860500D01*
X14565500Y-5833000D02*
X14620500Y-5833000D01*
D11*
X14620500Y-5875500D02*
X14620500Y-5790500D01*
X14565500Y-5875500D02*
X14565500Y-5790500D01*
X14620500Y-5790500D02*
G75*
G03*
X14565500Y-5790500I-27500J0D01*
G01*
X14565500Y-5875500D02*
G75*
G03*
X14620500Y-5875500I27500J0D01*
G01*
D13*
X15452000Y-5805500D02*
X15452000Y-5860500D01*
X15424500Y-5833000D02*
X15479500Y-5833000D01*
D11*
X15479500Y-5875500D02*
X15479500Y-5790500D01*
X15424500Y-5875500D02*
X15424500Y-5790500D01*
X15479500Y-5790500D02*
G75*
G03*
X15424500Y-5790500I-27500J0D01*
G01*
X15424500Y-5875500D02*
G75*
G03*
X15479500Y-5875500I27500J0D01*
G01*
D13*
X15480000Y-5302500D02*
X15480000Y-5357500D01*
X15452500Y-5330000D02*
X15507500Y-5330000D01*
D11*
X15507500Y-5382500D02*
X15507500Y-5277500D01*
X15452500Y-5382500D02*
X15452500Y-5277500D01*
X15507500Y-5277500D02*
G75*
G03*
X15452500Y-5277500I-27500J0D01*
G01*
X15452500Y-5382500D02*
G75*
G03*
X15507500Y-5382500I27500J0D01*
G01*
D14*
X14616381Y-5667881D02*
X14616381Y-5602119D01*
X14550619Y-5602119D01*
X14550619Y-5667881D01*
X14616381Y-5667881D01*
D11*
X14630000Y-5667500D02*
X14630000Y-5602500D01*
X14537000Y-5667500D02*
X14537000Y-5602500D01*
X14630000Y-5602500D02*
G75*
G03*
X14537000Y-5602500I-46500J0D01*
G01*
X14537000Y-5667500D02*
G75*
G03*
X14630000Y-5667500I46500J0D01*
G01*
D14*
X15494381Y-5667881D02*
X15494381Y-5602119D01*
X15428619Y-5602119D01*
X15428619Y-5667881D01*
X15494381Y-5667881D01*
D11*
X15508000Y-5667500D02*
X15508000Y-5602500D01*
X15415000Y-5667500D02*
X15415000Y-5602500D01*
X15508000Y-5602500D02*
G75*
G03*
X15415000Y-5602500I-46500J0D01*
G01*
X15415000Y-5667500D02*
G75*
G03*
X15508000Y-5667500I46500J0D01*
G01*
D10*
X12700000Y-10591000D02*
X12750000Y-10541000D01*
X12700000Y-10491000D01*
X12650000Y-10541000D01*
X12700000Y-10591000D01*
X12700000Y-10845000D02*
X12750000Y-10795000D01*
X12700000Y-10745000D01*
X12650000Y-10795000D01*
X12700000Y-10845000D01*
X12700000Y-11099000D02*
X12750000Y-11049000D01*
X12700000Y-10999000D01*
X12650000Y-11049000D01*
X12700000Y-11099000D01*
X12700000Y-11353000D02*
X12750000Y-11303000D01*
X12700000Y-11253000D01*
X12650000Y-11303000D01*
X12700000Y-11353000D01*
X12700000Y-11607000D02*
X12750000Y-11557000D01*
X12700000Y-11507000D01*
X12650000Y-11557000D01*
X12700000Y-11607000D01*
X12700000Y-11861000D02*
X12750000Y-11811000D01*
X12700000Y-11761000D01*
X12650000Y-11811000D01*
X12700000Y-11861000D01*
X12700000Y-12115000D02*
X12750000Y-12065000D01*
X12700000Y-12015000D01*
X12650000Y-12065000D01*
X12700000Y-12115000D01*
X12700000Y-12369000D02*
X12750000Y-12319000D01*
X12700000Y-12269000D01*
X12650000Y-12319000D01*
X12700000Y-12369000D01*
X12700000Y-12623000D02*
X12750000Y-12573000D01*
X12700000Y-12523000D01*
X12650000Y-12573000D01*
X12700000Y-12623000D01*
X12700000Y-12877000D02*
X12750000Y-12827000D01*
X12700000Y-12777000D01*
X12650000Y-12827000D01*
X12700000Y-12877000D01*
X12700000Y-13131000D02*
X12750000Y-13081000D01*
X12700000Y-13031000D01*
X12650000Y-13081000D01*
X12700000Y-13131000D01*
X12700000Y-13385000D02*
X12750000Y-13335000D01*
X12700000Y-13285000D01*
X12650000Y-13335000D01*
X12700000Y-13385000D01*
X14919000Y-6322000D02*
X14969000Y-6272000D01*
X14919000Y-6222000D01*
X14869000Y-6272000D01*
X14919000Y-6322000D01*
X15173000Y-6322000D02*
X15223000Y-6272000D01*
X15173000Y-6222000D01*
X15123000Y-6272000D01*
X15173000Y-6322000D01*
X17399000Y-10591000D02*
X17449000Y-10541000D01*
X17399000Y-10491000D01*
X17349000Y-10541000D01*
X17399000Y-10591000D01*
X17399000Y-10845000D02*
X17449000Y-10795000D01*
X17399000Y-10745000D01*
X17349000Y-10795000D01*
X17399000Y-10845000D01*
X17399000Y-11099000D02*
X17449000Y-11049000D01*
X17399000Y-10999000D01*
X17349000Y-11049000D01*
X17399000Y-11099000D01*
X17399000Y-11353000D02*
X17449000Y-11303000D01*
X17399000Y-11253000D01*
X17349000Y-11303000D01*
X17399000Y-11353000D01*
X17399000Y-11607000D02*
X17449000Y-11557000D01*
X17399000Y-11507000D01*
X17349000Y-11557000D01*
X17399000Y-11607000D01*
X17399000Y-11861000D02*
X17449000Y-11811000D01*
X17399000Y-11761000D01*
X17349000Y-11811000D01*
X17399000Y-11861000D01*
X17399000Y-12115000D02*
X17449000Y-12065000D01*
X17399000Y-12015000D01*
X17349000Y-12065000D01*
X17399000Y-12115000D01*
X17399000Y-12369000D02*
X17449000Y-12319000D01*
X17399000Y-12269000D01*
X17349000Y-12319000D01*
X17399000Y-12369000D01*
X17399000Y-12623000D02*
X17449000Y-12573000D01*
X17399000Y-12523000D01*
X17349000Y-12573000D01*
X17399000Y-12623000D01*
X17399000Y-12877000D02*
X17449000Y-12827000D01*
X17399000Y-12777000D01*
X17349000Y-12827000D01*
X17399000Y-12877000D01*
X17399000Y-13131000D02*
X17449000Y-13081000D01*
X17399000Y-13031000D01*
X17349000Y-13081000D01*
X17399000Y-13131000D01*
X17399000Y-13385000D02*
X17449000Y-13335000D01*
X17399000Y-13285000D01*
X17349000Y-13335000D01*
X17399000Y-13385000D01*
D11*
X12590619Y-13915476D02*
X12590619Y-13715476D01*
X12638238Y-13715476D01*
X12666809Y-13725000D01*
X12685857Y-13744048D01*
X12695381Y-13763095D01*
X12704905Y-13801190D01*
X12704905Y-13829762D01*
X12695381Y-13867857D01*
X12685857Y-13886905D01*
X12666809Y-13905952D01*
X12638238Y-13915476D01*
X12590619Y-13915476D01*
X12790619Y-13915476D02*
X12790619Y-13782143D01*
X12790619Y-13820238D02*
X12800143Y-13801190D01*
X12809667Y-13791667D01*
X12828714Y-13782143D01*
X12847762Y-13782143D01*
X12914428Y-13915476D02*
X12914428Y-13782143D01*
X12914428Y-13715476D02*
X12904905Y-13725000D01*
X12914428Y-13734524D01*
X12923952Y-13725000D01*
X12914428Y-13715476D01*
X12914428Y-13734524D01*
X13038238Y-13915476D02*
X13019190Y-13905952D01*
X13009667Y-13886905D01*
X13009667Y-13715476D01*
X13143000Y-13915476D02*
X13123952Y-13905952D01*
X13114428Y-13886905D01*
X13114428Y-13715476D01*
X13371571Y-13915476D02*
X13371571Y-13715476D01*
X13438238Y-13858333D01*
X13504905Y-13715476D01*
X13504905Y-13915476D01*
X13685857Y-13915476D02*
X13685857Y-13810714D01*
X13676333Y-13791667D01*
X13657286Y-13782143D01*
X13619190Y-13782143D01*
X13600143Y-13791667D01*
X13685857Y-13905952D02*
X13666809Y-13915476D01*
X13619190Y-13915476D01*
X13600143Y-13905952D01*
X13590619Y-13886905D01*
X13590619Y-13867857D01*
X13600143Y-13848809D01*
X13619190Y-13839286D01*
X13666809Y-13839286D01*
X13685857Y-13829762D01*
X13781095Y-13782143D02*
X13781095Y-13982143D01*
X13781095Y-13791667D02*
X13800143Y-13782143D01*
X13838238Y-13782143D01*
X13857286Y-13791667D01*
X13866809Y-13801190D01*
X13876333Y-13820238D01*
X13876333Y-13877381D01*
X13866809Y-13896428D01*
X13857286Y-13905952D01*
X13838238Y-13915476D01*
X13800143Y-13915476D01*
X13781095Y-13905952D01*
X13962048Y-13896428D02*
X13971571Y-13905952D01*
X13962048Y-13915476D01*
X13952524Y-13905952D01*
X13962048Y-13896428D01*
X13962048Y-13915476D01*
X13962048Y-13791667D02*
X13971571Y-13801190D01*
X13962048Y-13810714D01*
X13952524Y-13801190D01*
X13962048Y-13791667D01*
X13962048Y-13810714D01*
D12*
X12293000Y-14225000D02*
X12333000Y-14265000D01*
X12333000Y-14225000D02*
X12293000Y-14265000D01*
D11*
X12628714Y-14135476D02*
X12647762Y-14135476D01*
X12666809Y-14145000D01*
X12676333Y-14154524D01*
X12685857Y-14173571D01*
X12695381Y-14211667D01*
X12695381Y-14259286D01*
X12685857Y-14297381D01*
X12676333Y-14316428D01*
X12666809Y-14325952D01*
X12647762Y-14335476D01*
X12628714Y-14335476D01*
X12609667Y-14325952D01*
X12600143Y-14316428D01*
X12590619Y-14297381D01*
X12581095Y-14259286D01*
X12581095Y-14211667D01*
X12590619Y-14173571D01*
X12600143Y-14154524D01*
X12609667Y-14145000D01*
X12628714Y-14135476D01*
X12781095Y-14316428D02*
X12790619Y-14325952D01*
X12781095Y-14335476D01*
X12771571Y-14325952D01*
X12781095Y-14316428D01*
X12781095Y-14335476D01*
X12962048Y-14202143D02*
X12962048Y-14335476D01*
X12914428Y-14125952D02*
X12866809Y-14268809D01*
X12990619Y-14268809D01*
X13104905Y-14135476D02*
X13123952Y-14135476D01*
X13143000Y-14145000D01*
X13152524Y-14154524D01*
X13162048Y-14173571D01*
X13171571Y-14211667D01*
X13171571Y-14259286D01*
X13162048Y-14297381D01*
X13152524Y-14316428D01*
X13143000Y-14325952D01*
X13123952Y-14335476D01*
X13104905Y-14335476D01*
X13085857Y-14325952D01*
X13076333Y-14316428D01*
X13066809Y-14297381D01*
X13057286Y-14259286D01*
X13057286Y-14211667D01*
X13066809Y-14173571D01*
X13076333Y-14154524D01*
X13085857Y-14145000D01*
X13104905Y-14135476D01*
X13295381Y-14135476D02*
X13314428Y-14135476D01*
X13333476Y-14145000D01*
X13343000Y-14154524D01*
X13352524Y-14173571D01*
X13362048Y-14211667D01*
X13362048Y-14259286D01*
X13352524Y-14297381D01*
X13343000Y-14316428D01*
X13333476Y-14325952D01*
X13314428Y-14335476D01*
X13295381Y-14335476D01*
X13276333Y-14325952D01*
X13266809Y-14316428D01*
X13257286Y-14297381D01*
X13247762Y-14259286D01*
X13247762Y-14211667D01*
X13257286Y-14173571D01*
X13266809Y-14154524D01*
X13276333Y-14145000D01*
X13295381Y-14135476D01*
X13447762Y-14335476D02*
X13447762Y-14202143D01*
X13447762Y-14221190D02*
X13457286Y-14211667D01*
X13476333Y-14202143D01*
X13504905Y-14202143D01*
X13523952Y-14211667D01*
X13533476Y-14230714D01*
X13533476Y-14335476D01*
X13533476Y-14230714D02*
X13543000Y-14211667D01*
X13562048Y-14202143D01*
X13590619Y-14202143D01*
X13609667Y-14211667D01*
X13619190Y-14230714D01*
X13619190Y-14335476D01*
X13714428Y-14335476D02*
X13714428Y-14202143D01*
X13714428Y-14221190D02*
X13723952Y-14211667D01*
X13743000Y-14202143D01*
X13771571Y-14202143D01*
X13790619Y-14211667D01*
X13800143Y-14230714D01*
X13800143Y-14335476D01*
X13800143Y-14230714D02*
X13809667Y-14211667D01*
X13828714Y-14202143D01*
X13857286Y-14202143D01*
X13876333Y-14211667D01*
X13885857Y-14230714D01*
X13885857Y-14335476D01*
X14276333Y-14125952D02*
X14104905Y-14383095D01*
X14533476Y-14135476D02*
X14552524Y-14135476D01*
X14571571Y-14145000D01*
X14581095Y-14154524D01*
X14590619Y-14173571D01*
X14600143Y-14211667D01*
X14600143Y-14259286D01*
X14590619Y-14297381D01*
X14581095Y-14316428D01*
X14571571Y-14325952D01*
X14552524Y-14335476D01*
X14533476Y-14335476D01*
X14514428Y-14325952D01*
X14504905Y-14316428D01*
X14495381Y-14297381D01*
X14485857Y-14259286D01*
X14485857Y-14211667D01*
X14495381Y-14173571D01*
X14504905Y-14154524D01*
X14514428Y-14145000D01*
X14533476Y-14135476D01*
X14685857Y-14316428D02*
X14695381Y-14325952D01*
X14685857Y-14335476D01*
X14676333Y-14325952D01*
X14685857Y-14316428D01*
X14685857Y-14335476D01*
X14819190Y-14135476D02*
X14838238Y-14135476D01*
X14857286Y-14145000D01*
X14866809Y-14154524D01*
X14876333Y-14173571D01*
X14885857Y-14211667D01*
X14885857Y-14259286D01*
X14876333Y-14297381D01*
X14866809Y-14316428D01*
X14857286Y-14325952D01*
X14838238Y-14335476D01*
X14819190Y-14335476D01*
X14800143Y-14325952D01*
X14790619Y-14316428D01*
X14781095Y-14297381D01*
X14771571Y-14259286D01*
X14771571Y-14211667D01*
X14781095Y-14173571D01*
X14790619Y-14154524D01*
X14800143Y-14145000D01*
X14819190Y-14135476D01*
X15076333Y-14335476D02*
X14962048Y-14335476D01*
X15019190Y-14335476D02*
X15019190Y-14135476D01*
X15000143Y-14164048D01*
X14981095Y-14183095D01*
X14962048Y-14192619D01*
X15257286Y-14135476D02*
X15162048Y-14135476D01*
X15152524Y-14230714D01*
X15162048Y-14221190D01*
X15181095Y-14211667D01*
X15228714Y-14211667D01*
X15247762Y-14221190D01*
X15257286Y-14230714D01*
X15266809Y-14249762D01*
X15266809Y-14297381D01*
X15257286Y-14316428D01*
X15247762Y-14325952D01*
X15228714Y-14335476D01*
X15181095Y-14335476D01*
X15162048Y-14325952D01*
X15152524Y-14316428D01*
X15333476Y-14135476D02*
X15466809Y-14135476D01*
X15381095Y-14335476D01*
X15533476Y-14135476D02*
X15533476Y-14173571D01*
X15609667Y-14135476D02*
X15609667Y-14173571D01*
X15904905Y-14411667D02*
X15895381Y-14402143D01*
X15876333Y-14373571D01*
X15866809Y-14354524D01*
X15857286Y-14325952D01*
X15847762Y-14278333D01*
X15847762Y-14240238D01*
X15857286Y-14192619D01*
X15866809Y-14164048D01*
X15876333Y-14145000D01*
X15895381Y-14116428D01*
X15904905Y-14106905D01*
X15962048Y-14135476D02*
X16095381Y-14135476D01*
X16009667Y-14335476D01*
X16209667Y-14135476D02*
X16228714Y-14135476D01*
X16247762Y-14145000D01*
X16257286Y-14154524D01*
X16266809Y-14173571D01*
X16276333Y-14211667D01*
X16276333Y-14259286D01*
X16266809Y-14297381D01*
X16257286Y-14316428D01*
X16247762Y-14325952D01*
X16228714Y-14335476D01*
X16209667Y-14335476D01*
X16190619Y-14325952D01*
X16181095Y-14316428D01*
X16171571Y-14297381D01*
X16162048Y-14259286D01*
X16162048Y-14211667D01*
X16171571Y-14173571D01*
X16181095Y-14154524D01*
X16190619Y-14145000D01*
X16209667Y-14135476D01*
X16514428Y-14335476D02*
X16514428Y-14135476D01*
X16600143Y-14335476D02*
X16600143Y-14230714D01*
X16590619Y-14211667D01*
X16571571Y-14202143D01*
X16543000Y-14202143D01*
X16523952Y-14211667D01*
X16514428Y-14221190D01*
X16723952Y-14335476D02*
X16704905Y-14325952D01*
X16695381Y-14316428D01*
X16685857Y-14297381D01*
X16685857Y-14240238D01*
X16695381Y-14221190D01*
X16704905Y-14211667D01*
X16723952Y-14202143D01*
X16752524Y-14202143D01*
X16771571Y-14211667D01*
X16781095Y-14221190D01*
X16790619Y-14240238D01*
X16790619Y-14297381D01*
X16781095Y-14316428D01*
X16771571Y-14325952D01*
X16752524Y-14335476D01*
X16723952Y-14335476D01*
X16904905Y-14335476D02*
X16885857Y-14325952D01*
X16876333Y-14306905D01*
X16876333Y-14135476D01*
X17057286Y-14325952D02*
X17038238Y-14335476D01*
X17000143Y-14335476D01*
X16981095Y-14325952D01*
X16971571Y-14306905D01*
X16971571Y-14230714D01*
X16981095Y-14211667D01*
X17000143Y-14202143D01*
X17038238Y-14202143D01*
X17057286Y-14211667D01*
X17066810Y-14230714D01*
X17066810Y-14249762D01*
X16971571Y-14268809D01*
X17143000Y-14325952D02*
X17162048Y-14335476D01*
X17200143Y-14335476D01*
X17219190Y-14325952D01*
X17228714Y-14306905D01*
X17228714Y-14297381D01*
X17219190Y-14278333D01*
X17200143Y-14268809D01*
X17171571Y-14268809D01*
X17152524Y-14259286D01*
X17143000Y-14240238D01*
X17143000Y-14230714D01*
X17152524Y-14211667D01*
X17171571Y-14202143D01*
X17200143Y-14202143D01*
X17219190Y-14211667D01*
X17295381Y-14411667D02*
X17304905Y-14402143D01*
X17323952Y-14373571D01*
X17333476Y-14354524D01*
X17343000Y-14325952D01*
X17352524Y-14278333D01*
X17352524Y-14240238D01*
X17343000Y-14192619D01*
X17333476Y-14164048D01*
X17323952Y-14145000D01*
X17304905Y-14116428D01*
X17295381Y-14106905D01*
D12*
X12333000Y-14509000D02*
G75*
G03*
X12333000Y-14509000I-20000J0D01*
G01*
D11*
X12628714Y-14399476D02*
X12647762Y-14399476D01*
X12666809Y-14409000D01*
X12676333Y-14418524D01*
X12685857Y-14437571D01*
X12695381Y-14475667D01*
X12695381Y-14523286D01*
X12685857Y-14561381D01*
X12676333Y-14580428D01*
X12666809Y-14589952D01*
X12647762Y-14599476D01*
X12628714Y-14599476D01*
X12609667Y-14589952D01*
X12600143Y-14580428D01*
X12590619Y-14561381D01*
X12581095Y-14523286D01*
X12581095Y-14475667D01*
X12590619Y-14437571D01*
X12600143Y-14418524D01*
X12609667Y-14409000D01*
X12628714Y-14399476D01*
X12781095Y-14580428D02*
X12790619Y-14589952D01*
X12781095Y-14599476D01*
X12771571Y-14589952D01*
X12781095Y-14580428D01*
X12781095Y-14599476D01*
X12962048Y-14466143D02*
X12962048Y-14599476D01*
X12914428Y-14389952D02*
X12866809Y-14532809D01*
X12990619Y-14532809D01*
X13104905Y-14399476D02*
X13123952Y-14399476D01*
X13143000Y-14409000D01*
X13152524Y-14418524D01*
X13162048Y-14437571D01*
X13171571Y-14475667D01*
X13171571Y-14523286D01*
X13162048Y-14561381D01*
X13152524Y-14580428D01*
X13143000Y-14589952D01*
X13123952Y-14599476D01*
X13104905Y-14599476D01*
X13085857Y-14589952D01*
X13076333Y-14580428D01*
X13066809Y-14561381D01*
X13057286Y-14523286D01*
X13057286Y-14475667D01*
X13066809Y-14437571D01*
X13076333Y-14418524D01*
X13085857Y-14409000D01*
X13104905Y-14399476D01*
X13295381Y-14399476D02*
X13314428Y-14399476D01*
X13333476Y-14409000D01*
X13343000Y-14418524D01*
X13352524Y-14437571D01*
X13362048Y-14475667D01*
X13362048Y-14523286D01*
X13352524Y-14561381D01*
X13343000Y-14580428D01*
X13333476Y-14589952D01*
X13314428Y-14599476D01*
X13295381Y-14599476D01*
X13276333Y-14589952D01*
X13266809Y-14580428D01*
X13257286Y-14561381D01*
X13247762Y-14523286D01*
X13247762Y-14475667D01*
X13257286Y-14437571D01*
X13266809Y-14418524D01*
X13276333Y-14409000D01*
X13295381Y-14399476D01*
X13447762Y-14599476D02*
X13447762Y-14466143D01*
X13447762Y-14485190D02*
X13457286Y-14475667D01*
X13476333Y-14466143D01*
X13504905Y-14466143D01*
X13523952Y-14475667D01*
X13533476Y-14494714D01*
X13533476Y-14599476D01*
X13533476Y-14494714D02*
X13543000Y-14475667D01*
X13562048Y-14466143D01*
X13590619Y-14466143D01*
X13609667Y-14475667D01*
X13619190Y-14494714D01*
X13619190Y-14599476D01*
X13714428Y-14599476D02*
X13714428Y-14466143D01*
X13714428Y-14485190D02*
X13723952Y-14475667D01*
X13743000Y-14466143D01*
X13771571Y-14466143D01*
X13790619Y-14475667D01*
X13800143Y-14494714D01*
X13800143Y-14599476D01*
X13800143Y-14494714D02*
X13809667Y-14475667D01*
X13828714Y-14466143D01*
X13857286Y-14466143D01*
X13876333Y-14475667D01*
X13885857Y-14494714D01*
X13885857Y-14599476D01*
X14276333Y-14389952D02*
X14104905Y-14647095D01*
X14533476Y-14399476D02*
X14552524Y-14399476D01*
X14571571Y-14409000D01*
X14581095Y-14418524D01*
X14590619Y-14437571D01*
X14600143Y-14475667D01*
X14600143Y-14523286D01*
X14590619Y-14561381D01*
X14581095Y-14580428D01*
X14571571Y-14589952D01*
X14552524Y-14599476D01*
X14533476Y-14599476D01*
X14514428Y-14589952D01*
X14504905Y-14580428D01*
X14495381Y-14561381D01*
X14485857Y-14523286D01*
X14485857Y-14475667D01*
X14495381Y-14437571D01*
X14504905Y-14418524D01*
X14514428Y-14409000D01*
X14533476Y-14399476D01*
X14685857Y-14580428D02*
X14695381Y-14589952D01*
X14685857Y-14599476D01*
X14676333Y-14589952D01*
X14685857Y-14580428D01*
X14685857Y-14599476D01*
X14819190Y-14399476D02*
X14838238Y-14399476D01*
X14857286Y-14409000D01*
X14866809Y-14418524D01*
X14876333Y-14437571D01*
X14885857Y-14475667D01*
X14885857Y-14523286D01*
X14876333Y-14561381D01*
X14866809Y-14580428D01*
X14857286Y-14589952D01*
X14838238Y-14599476D01*
X14819190Y-14599476D01*
X14800143Y-14589952D01*
X14790619Y-14580428D01*
X14781095Y-14561381D01*
X14771571Y-14523286D01*
X14771571Y-14475667D01*
X14781095Y-14437571D01*
X14790619Y-14418524D01*
X14800143Y-14409000D01*
X14819190Y-14399476D01*
X15076333Y-14599476D02*
X14962048Y-14599476D01*
X15019190Y-14599476D02*
X15019190Y-14399476D01*
X15000143Y-14428048D01*
X14981095Y-14447095D01*
X14962048Y-14456619D01*
X15257286Y-14399476D02*
X15162048Y-14399476D01*
X15152524Y-14494714D01*
X15162048Y-14485190D01*
X15181095Y-14475667D01*
X15228714Y-14475667D01*
X15247762Y-14485190D01*
X15257286Y-14494714D01*
X15266809Y-14513762D01*
X15266809Y-14561381D01*
X15257286Y-14580428D01*
X15247762Y-14589952D01*
X15228714Y-14599476D01*
X15181095Y-14599476D01*
X15162048Y-14589952D01*
X15152524Y-14580428D01*
X15333476Y-14399476D02*
X15466809Y-14399476D01*
X15381095Y-14599476D01*
X15533476Y-14399476D02*
X15533476Y-14437571D01*
X15609667Y-14399476D02*
X15609667Y-14437571D01*
X15904905Y-14675667D02*
X15895381Y-14666143D01*
X15876333Y-14637571D01*
X15866809Y-14618524D01*
X15857286Y-14589952D01*
X15847762Y-14542333D01*
X15847762Y-14504238D01*
X15857286Y-14456619D01*
X15866809Y-14428048D01*
X15876333Y-14409000D01*
X15895381Y-14380428D01*
X15904905Y-14370905D01*
X16085857Y-14599476D02*
X15971571Y-14599476D01*
X16028714Y-14599476D02*
X16028714Y-14399476D01*
X16009667Y-14428048D01*
X15990619Y-14447095D01*
X15971571Y-14456619D01*
X16162048Y-14418524D02*
X16171571Y-14409000D01*
X16190619Y-14399476D01*
X16238238Y-14399476D01*
X16257286Y-14409000D01*
X16266809Y-14418524D01*
X16276333Y-14437571D01*
X16276333Y-14456619D01*
X16266809Y-14485190D01*
X16152524Y-14599476D01*
X16276333Y-14599476D01*
X16514428Y-14599476D02*
X16514428Y-14399476D01*
X16600143Y-14599476D02*
X16600143Y-14494714D01*
X16590619Y-14475667D01*
X16571571Y-14466143D01*
X16543000Y-14466143D01*
X16523952Y-14475667D01*
X16514428Y-14485190D01*
X16723952Y-14599476D02*
X16704905Y-14589952D01*
X16695381Y-14580428D01*
X16685857Y-14561381D01*
X16685857Y-14504238D01*
X16695381Y-14485190D01*
X16704905Y-14475667D01*
X16723952Y-14466143D01*
X16752524Y-14466143D01*
X16771571Y-14475667D01*
X16781095Y-14485190D01*
X16790619Y-14504238D01*
X16790619Y-14561381D01*
X16781095Y-14580428D01*
X16771571Y-14589952D01*
X16752524Y-14599476D01*
X16723952Y-14599476D01*
X16904905Y-14599476D02*
X16885857Y-14589952D01*
X16876333Y-14570905D01*
X16876333Y-14399476D01*
X17057286Y-14589952D02*
X17038238Y-14599476D01*
X17000143Y-14599476D01*
X16981095Y-14589952D01*
X16971571Y-14570905D01*
X16971571Y-14494714D01*
X16981095Y-14475667D01*
X17000143Y-14466143D01*
X17038238Y-14466143D01*
X17057286Y-14475667D01*
X17066810Y-14494714D01*
X17066810Y-14513762D01*
X16971571Y-14532809D01*
X17143000Y-14589952D02*
X17162048Y-14599476D01*
X17200143Y-14599476D01*
X17219190Y-14589952D01*
X17228714Y-14570905D01*
X17228714Y-14561381D01*
X17219190Y-14542333D01*
X17200143Y-14532809D01*
X17171571Y-14532809D01*
X17152524Y-14523286D01*
X17143000Y-14504238D01*
X17143000Y-14494714D01*
X17152524Y-14475667D01*
X17171571Y-14466143D01*
X17200143Y-14466143D01*
X17219190Y-14475667D01*
X17295381Y-14675667D02*
X17304905Y-14666143D01*
X17323952Y-14637571D01*
X17333476Y-14618524D01*
X17343000Y-14589952D01*
X17352524Y-14542333D01*
X17352524Y-14504238D01*
X17343000Y-14456619D01*
X17333476Y-14428048D01*
X17323952Y-14409000D01*
X17304905Y-14380428D01*
X17295381Y-14370905D01*
D13*
X12305500Y-14745500D02*
X12305500Y-14800500D01*
X12278000Y-14773000D02*
X12333000Y-14773000D01*
D11*
X12628714Y-14663476D02*
X12647762Y-14663476D01*
X12666809Y-14673000D01*
X12676333Y-14682524D01*
X12685857Y-14701571D01*
X12695381Y-14739667D01*
X12695381Y-14787286D01*
X12685857Y-14825381D01*
X12676333Y-14844428D01*
X12666809Y-14853952D01*
X12647762Y-14863476D01*
X12628714Y-14863476D01*
X12609667Y-14853952D01*
X12600143Y-14844428D01*
X12590619Y-14825381D01*
X12581095Y-14787286D01*
X12581095Y-14739667D01*
X12590619Y-14701571D01*
X12600143Y-14682524D01*
X12609667Y-14673000D01*
X12628714Y-14663476D01*
X12781095Y-14844428D02*
X12790619Y-14853952D01*
X12781095Y-14863476D01*
X12771571Y-14853952D01*
X12781095Y-14844428D01*
X12781095Y-14863476D01*
X12971571Y-14663476D02*
X12876333Y-14663476D01*
X12866809Y-14758714D01*
X12876333Y-14749190D01*
X12895381Y-14739667D01*
X12943000Y-14739667D01*
X12962048Y-14749190D01*
X12971571Y-14758714D01*
X12981095Y-14777762D01*
X12981095Y-14825381D01*
X12971571Y-14844428D01*
X12962048Y-14853952D01*
X12943000Y-14863476D01*
X12895381Y-14863476D01*
X12876333Y-14853952D01*
X12866809Y-14844428D01*
X13162048Y-14663476D02*
X13066809Y-14663476D01*
X13057286Y-14758714D01*
X13066809Y-14749190D01*
X13085857Y-14739667D01*
X13133476Y-14739667D01*
X13152524Y-14749190D01*
X13162048Y-14758714D01*
X13171571Y-14777762D01*
X13171571Y-14825381D01*
X13162048Y-14844428D01*
X13152524Y-14853952D01*
X13133476Y-14863476D01*
X13085857Y-14863476D01*
X13066809Y-14853952D01*
X13057286Y-14844428D01*
X13295381Y-14663476D02*
X13314428Y-14663476D01*
X13333476Y-14673000D01*
X13343000Y-14682524D01*
X13352524Y-14701571D01*
X13362048Y-14739667D01*
X13362048Y-14787286D01*
X13352524Y-14825381D01*
X13343000Y-14844428D01*
X13333476Y-14853952D01*
X13314428Y-14863476D01*
X13295381Y-14863476D01*
X13276333Y-14853952D01*
X13266809Y-14844428D01*
X13257286Y-14825381D01*
X13247762Y-14787286D01*
X13247762Y-14739667D01*
X13257286Y-14701571D01*
X13266809Y-14682524D01*
X13276333Y-14673000D01*
X13295381Y-14663476D01*
X13447762Y-14863476D02*
X13447762Y-14730143D01*
X13447762Y-14749190D02*
X13457286Y-14739667D01*
X13476333Y-14730143D01*
X13504905Y-14730143D01*
X13523952Y-14739667D01*
X13533476Y-14758714D01*
X13533476Y-14863476D01*
X13533476Y-14758714D02*
X13543000Y-14739667D01*
X13562048Y-14730143D01*
X13590619Y-14730143D01*
X13609667Y-14739667D01*
X13619190Y-14758714D01*
X13619190Y-14863476D01*
X13714428Y-14863476D02*
X13714428Y-14730143D01*
X13714428Y-14749190D02*
X13723952Y-14739667D01*
X13743000Y-14730143D01*
X13771571Y-14730143D01*
X13790619Y-14739667D01*
X13800143Y-14758714D01*
X13800143Y-14863476D01*
X13800143Y-14758714D02*
X13809667Y-14739667D01*
X13828714Y-14730143D01*
X13857286Y-14730143D01*
X13876333Y-14739667D01*
X13885857Y-14758714D01*
X13885857Y-14863476D01*
X14276333Y-14653952D02*
X14104905Y-14911095D01*
X14533476Y-14663476D02*
X14552524Y-14663476D01*
X14571571Y-14673000D01*
X14581095Y-14682524D01*
X14590619Y-14701571D01*
X14600143Y-14739667D01*
X14600143Y-14787286D01*
X14590619Y-14825381D01*
X14581095Y-14844428D01*
X14571571Y-14853952D01*
X14552524Y-14863476D01*
X14533476Y-14863476D01*
X14514428Y-14853952D01*
X14504905Y-14844428D01*
X14495381Y-14825381D01*
X14485857Y-14787286D01*
X14485857Y-14739667D01*
X14495381Y-14701571D01*
X14504905Y-14682524D01*
X14514428Y-14673000D01*
X14533476Y-14663476D01*
X14685857Y-14844428D02*
X14695381Y-14853952D01*
X14685857Y-14863476D01*
X14676333Y-14853952D01*
X14685857Y-14844428D01*
X14685857Y-14863476D01*
X14819190Y-14663476D02*
X14838238Y-14663476D01*
X14857286Y-14673000D01*
X14866809Y-14682524D01*
X14876333Y-14701571D01*
X14885857Y-14739667D01*
X14885857Y-14787286D01*
X14876333Y-14825381D01*
X14866809Y-14844428D01*
X14857286Y-14853952D01*
X14838238Y-14863476D01*
X14819190Y-14863476D01*
X14800143Y-14853952D01*
X14790619Y-14844428D01*
X14781095Y-14825381D01*
X14771571Y-14787286D01*
X14771571Y-14739667D01*
X14781095Y-14701571D01*
X14790619Y-14682524D01*
X14800143Y-14673000D01*
X14819190Y-14663476D01*
X14962048Y-14682524D02*
X14971571Y-14673000D01*
X14990619Y-14663476D01*
X15038238Y-14663476D01*
X15057286Y-14673000D01*
X15066809Y-14682524D01*
X15076333Y-14701571D01*
X15076333Y-14720619D01*
X15066809Y-14749190D01*
X14952524Y-14863476D01*
X15076333Y-14863476D01*
X15266809Y-14863476D02*
X15152524Y-14863476D01*
X15209667Y-14863476D02*
X15209667Y-14663476D01*
X15190619Y-14692048D01*
X15171571Y-14711095D01*
X15152524Y-14720619D01*
X15333476Y-14663476D02*
X15466809Y-14663476D01*
X15381095Y-14863476D01*
X15533476Y-14663476D02*
X15533476Y-14701571D01*
X15609667Y-14663476D02*
X15609667Y-14701571D01*
X15904905Y-14939667D02*
X15895381Y-14930143D01*
X15876333Y-14901571D01*
X15866809Y-14882524D01*
X15857286Y-14853952D01*
X15847762Y-14806333D01*
X15847762Y-14768238D01*
X15857286Y-14720619D01*
X15866809Y-14692048D01*
X15876333Y-14673000D01*
X15895381Y-14644428D01*
X15904905Y-14634905D01*
X16019190Y-14663476D02*
X16038238Y-14663476D01*
X16057286Y-14673000D01*
X16066809Y-14682524D01*
X16076333Y-14701571D01*
X16085857Y-14739667D01*
X16085857Y-14787286D01*
X16076333Y-14825381D01*
X16066809Y-14844428D01*
X16057286Y-14853952D01*
X16038238Y-14863476D01*
X16019190Y-14863476D01*
X16000143Y-14853952D01*
X15990619Y-14844428D01*
X15981095Y-14825381D01*
X15971571Y-14787286D01*
X15971571Y-14739667D01*
X15981095Y-14701571D01*
X15990619Y-14682524D01*
X16000143Y-14673000D01*
X16019190Y-14663476D01*
X16323952Y-14863476D02*
X16323952Y-14663476D01*
X16409667Y-14863476D02*
X16409667Y-14758714D01*
X16400143Y-14739667D01*
X16381095Y-14730143D01*
X16352524Y-14730143D01*
X16333476Y-14739667D01*
X16323952Y-14749190D01*
X16533476Y-14863476D02*
X16514428Y-14853952D01*
X16504905Y-14844428D01*
X16495381Y-14825381D01*
X16495381Y-14768238D01*
X16504905Y-14749190D01*
X16514428Y-14739667D01*
X16533476Y-14730143D01*
X16562048Y-14730143D01*
X16581095Y-14739667D01*
X16590619Y-14749190D01*
X16600143Y-14768238D01*
X16600143Y-14825381D01*
X16590619Y-14844428D01*
X16581095Y-14853952D01*
X16562048Y-14863476D01*
X16533476Y-14863476D01*
X16714428Y-14863476D02*
X16695381Y-14853952D01*
X16685857Y-14834905D01*
X16685857Y-14663476D01*
X16866810Y-14853952D02*
X16847762Y-14863476D01*
X16809667Y-14863476D01*
X16790619Y-14853952D01*
X16781095Y-14834905D01*
X16781095Y-14758714D01*
X16790619Y-14739667D01*
X16809667Y-14730143D01*
X16847762Y-14730143D01*
X16866810Y-14739667D01*
X16876333Y-14758714D01*
X16876333Y-14777762D01*
X16781095Y-14796809D01*
X16952524Y-14853952D02*
X16971571Y-14863476D01*
X17009667Y-14863476D01*
X17028714Y-14853952D01*
X17038238Y-14834905D01*
X17038238Y-14825381D01*
X17028714Y-14806333D01*
X17009667Y-14796809D01*
X16981095Y-14796809D01*
X16962048Y-14787286D01*
X16952524Y-14768238D01*
X16952524Y-14758714D01*
X16962048Y-14739667D01*
X16981095Y-14730143D01*
X17009667Y-14730143D01*
X17028714Y-14739667D01*
X17276333Y-14787286D02*
X17428714Y-14787286D01*
X17352524Y-14863476D02*
X17352524Y-14711095D01*
X17762048Y-14730143D02*
X17762048Y-14863476D01*
X17714429Y-14653952D02*
X17666810Y-14796809D01*
X17790619Y-14796809D01*
X18009667Y-14853952D02*
X18028714Y-14863476D01*
X18066810Y-14863476D01*
X18085857Y-14853952D01*
X18095381Y-14834905D01*
X18095381Y-14825381D01*
X18085857Y-14806333D01*
X18066810Y-14796809D01*
X18038238Y-14796809D01*
X18019190Y-14787286D01*
X18009667Y-14768238D01*
X18009667Y-14758714D01*
X18019190Y-14739667D01*
X18038238Y-14730143D01*
X18066810Y-14730143D01*
X18085857Y-14739667D01*
X18209667Y-14863476D02*
X18190619Y-14853952D01*
X18181095Y-14834905D01*
X18181095Y-14663476D01*
X18314429Y-14863476D02*
X18295381Y-14853952D01*
X18285857Y-14844428D01*
X18276333Y-14825381D01*
X18276333Y-14768238D01*
X18285857Y-14749190D01*
X18295381Y-14739667D01*
X18314429Y-14730143D01*
X18343000Y-14730143D01*
X18362048Y-14739667D01*
X18371571Y-14749190D01*
X18381095Y-14768238D01*
X18381095Y-14825381D01*
X18371571Y-14844428D01*
X18362048Y-14853952D01*
X18343000Y-14863476D01*
X18314429Y-14863476D01*
X18438238Y-14730143D02*
X18514429Y-14730143D01*
X18466810Y-14663476D02*
X18466810Y-14834905D01*
X18476333Y-14853952D01*
X18495381Y-14863476D01*
X18514429Y-14863476D01*
X18571571Y-14853952D02*
X18590619Y-14863476D01*
X18628714Y-14863476D01*
X18647762Y-14853952D01*
X18657286Y-14834905D01*
X18657286Y-14825381D01*
X18647762Y-14806333D01*
X18628714Y-14796809D01*
X18600143Y-14796809D01*
X18581095Y-14787286D01*
X18571571Y-14768238D01*
X18571571Y-14758714D01*
X18581095Y-14739667D01*
X18600143Y-14730143D01*
X18628714Y-14730143D01*
X18647762Y-14739667D01*
X18723952Y-14939667D02*
X18733476Y-14930143D01*
X18752524Y-14901571D01*
X18762048Y-14882524D01*
X18771571Y-14853952D01*
X18781095Y-14806333D01*
X18781095Y-14768238D01*
X18771571Y-14720619D01*
X18762048Y-14692048D01*
X18752524Y-14673000D01*
X18733476Y-14644428D01*
X18723952Y-14634905D01*
D14*
X12319381Y-15069881D02*
X12319381Y-15004119D01*
X12253619Y-15004119D01*
X12253619Y-15069881D01*
X12319381Y-15069881D01*
D11*
X12628714Y-14927476D02*
X12647762Y-14927476D01*
X12666809Y-14937000D01*
X12676333Y-14946524D01*
X12685857Y-14965571D01*
X12695381Y-15003667D01*
X12695381Y-15051286D01*
X12685857Y-15089381D01*
X12676333Y-15108428D01*
X12666809Y-15117952D01*
X12647762Y-15127476D01*
X12628714Y-15127476D01*
X12609667Y-15117952D01*
X12600143Y-15108428D01*
X12590619Y-15089381D01*
X12581095Y-15051286D01*
X12581095Y-15003667D01*
X12590619Y-14965571D01*
X12600143Y-14946524D01*
X12609667Y-14937000D01*
X12628714Y-14927476D01*
X12781095Y-15108428D02*
X12790619Y-15117952D01*
X12781095Y-15127476D01*
X12771571Y-15117952D01*
X12781095Y-15108428D01*
X12781095Y-15127476D01*
X12885857Y-15127476D02*
X12923952Y-15127476D01*
X12943000Y-15117952D01*
X12952524Y-15108428D01*
X12971571Y-15079857D01*
X12981095Y-15041762D01*
X12981095Y-14965571D01*
X12971571Y-14946524D01*
X12962048Y-14937000D01*
X12943000Y-14927476D01*
X12904905Y-14927476D01*
X12885857Y-14937000D01*
X12876333Y-14946524D01*
X12866809Y-14965571D01*
X12866809Y-15013190D01*
X12876333Y-15032238D01*
X12885857Y-15041762D01*
X12904905Y-15051286D01*
X12943000Y-15051286D01*
X12962048Y-15041762D01*
X12971571Y-15032238D01*
X12981095Y-15013190D01*
X13047762Y-14927476D02*
X13171571Y-14927476D01*
X13104905Y-15003667D01*
X13133476Y-15003667D01*
X13152524Y-15013190D01*
X13162048Y-15022714D01*
X13171571Y-15041762D01*
X13171571Y-15089381D01*
X13162048Y-15108428D01*
X13152524Y-15117952D01*
X13133476Y-15127476D01*
X13076333Y-15127476D01*
X13057286Y-15117952D01*
X13047762Y-15108428D01*
X13295381Y-14927476D02*
X13314428Y-14927476D01*
X13333476Y-14937000D01*
X13343000Y-14946524D01*
X13352524Y-14965571D01*
X13362048Y-15003667D01*
X13362048Y-15051286D01*
X13352524Y-15089381D01*
X13343000Y-15108428D01*
X13333476Y-15117952D01*
X13314428Y-15127476D01*
X13295381Y-15127476D01*
X13276333Y-15117952D01*
X13266809Y-15108428D01*
X13257286Y-15089381D01*
X13247762Y-15051286D01*
X13247762Y-15003667D01*
X13257286Y-14965571D01*
X13266809Y-14946524D01*
X13276333Y-14937000D01*
X13295381Y-14927476D01*
X13447762Y-15127476D02*
X13447762Y-14994143D01*
X13447762Y-15013190D02*
X13457286Y-15003667D01*
X13476333Y-14994143D01*
X13504905Y-14994143D01*
X13523952Y-15003667D01*
X13533476Y-15022714D01*
X13533476Y-15127476D01*
X13533476Y-15022714D02*
X13543000Y-15003667D01*
X13562048Y-14994143D01*
X13590619Y-14994143D01*
X13609667Y-15003667D01*
X13619190Y-15022714D01*
X13619190Y-15127476D01*
X13714428Y-15127476D02*
X13714428Y-14994143D01*
X13714428Y-15013190D02*
X13723952Y-15003667D01*
X13743000Y-14994143D01*
X13771571Y-14994143D01*
X13790619Y-15003667D01*
X13800143Y-15022714D01*
X13800143Y-15127476D01*
X13800143Y-15022714D02*
X13809667Y-15003667D01*
X13828714Y-14994143D01*
X13857286Y-14994143D01*
X13876333Y-15003667D01*
X13885857Y-15022714D01*
X13885857Y-15127476D01*
X14276333Y-14917952D02*
X14104905Y-15175095D01*
X14533476Y-14927476D02*
X14552524Y-14927476D01*
X14571571Y-14937000D01*
X14581095Y-14946524D01*
X14590619Y-14965571D01*
X14600143Y-15003667D01*
X14600143Y-15051286D01*
X14590619Y-15089381D01*
X14581095Y-15108428D01*
X14571571Y-15117952D01*
X14552524Y-15127476D01*
X14533476Y-15127476D01*
X14514428Y-15117952D01*
X14504905Y-15108428D01*
X14495381Y-15089381D01*
X14485857Y-15051286D01*
X14485857Y-15003667D01*
X14495381Y-14965571D01*
X14504905Y-14946524D01*
X14514428Y-14937000D01*
X14533476Y-14927476D01*
X14685857Y-15108428D02*
X14695381Y-15117952D01*
X14685857Y-15127476D01*
X14676333Y-15117952D01*
X14685857Y-15108428D01*
X14685857Y-15127476D01*
X14819190Y-14927476D02*
X14838238Y-14927476D01*
X14857286Y-14937000D01*
X14866809Y-14946524D01*
X14876333Y-14965571D01*
X14885857Y-15003667D01*
X14885857Y-15051286D01*
X14876333Y-15089381D01*
X14866809Y-15108428D01*
X14857286Y-15117952D01*
X14838238Y-15127476D01*
X14819190Y-15127476D01*
X14800143Y-15117952D01*
X14790619Y-15108428D01*
X14781095Y-15089381D01*
X14771571Y-15051286D01*
X14771571Y-15003667D01*
X14781095Y-14965571D01*
X14790619Y-14946524D01*
X14800143Y-14937000D01*
X14819190Y-14927476D01*
X14952524Y-14927476D02*
X15076333Y-14927476D01*
X15009667Y-15003667D01*
X15038238Y-15003667D01*
X15057286Y-15013190D01*
X15066809Y-15022714D01*
X15076333Y-15041762D01*
X15076333Y-15089381D01*
X15066809Y-15108428D01*
X15057286Y-15117952D01*
X15038238Y-15127476D01*
X14981095Y-15127476D01*
X14962048Y-15117952D01*
X14952524Y-15108428D01*
X15247762Y-14927476D02*
X15209667Y-14927476D01*
X15190619Y-14937000D01*
X15181095Y-14946524D01*
X15162048Y-14975095D01*
X15152524Y-15013190D01*
X15152524Y-15089381D01*
X15162048Y-15108428D01*
X15171571Y-15117952D01*
X15190619Y-15127476D01*
X15228714Y-15127476D01*
X15247762Y-15117952D01*
X15257286Y-15108428D01*
X15266809Y-15089381D01*
X15266809Y-15041762D01*
X15257286Y-15022714D01*
X15247762Y-15013190D01*
X15228714Y-15003667D01*
X15190619Y-15003667D01*
X15171571Y-15013190D01*
X15162048Y-15022714D01*
X15152524Y-15041762D01*
X15438238Y-14927476D02*
X15400143Y-14927476D01*
X15381095Y-14937000D01*
X15371571Y-14946524D01*
X15352524Y-14975095D01*
X15343000Y-15013190D01*
X15343000Y-15089381D01*
X15352524Y-15108428D01*
X15362048Y-15117952D01*
X15381095Y-15127476D01*
X15419190Y-15127476D01*
X15438238Y-15117952D01*
X15447762Y-15108428D01*
X15457286Y-15089381D01*
X15457286Y-15041762D01*
X15447762Y-15022714D01*
X15438238Y-15013190D01*
X15419190Y-15003667D01*
X15381095Y-15003667D01*
X15362048Y-15013190D01*
X15352524Y-15022714D01*
X15343000Y-15041762D01*
X15533476Y-14927476D02*
X15533476Y-14965571D01*
X15609667Y-14927476D02*
X15609667Y-14965571D01*
X15904905Y-15203667D02*
X15895381Y-15194143D01*
X15876333Y-15165571D01*
X15866809Y-15146524D01*
X15857286Y-15117952D01*
X15847762Y-15070333D01*
X15847762Y-15032238D01*
X15857286Y-14984619D01*
X15866809Y-14956048D01*
X15876333Y-14937000D01*
X15895381Y-14908428D01*
X15904905Y-14898905D01*
X16019190Y-14927476D02*
X16038238Y-14927476D01*
X16057286Y-14937000D01*
X16066809Y-14946524D01*
X16076333Y-14965571D01*
X16085857Y-15003667D01*
X16085857Y-15051286D01*
X16076333Y-15089381D01*
X16066809Y-15108428D01*
X16057286Y-15117952D01*
X16038238Y-15127476D01*
X16019190Y-15127476D01*
X16000143Y-15117952D01*
X15990619Y-15108428D01*
X15981095Y-15089381D01*
X15971571Y-15051286D01*
X15971571Y-15003667D01*
X15981095Y-14965571D01*
X15990619Y-14946524D01*
X16000143Y-14937000D01*
X16019190Y-14927476D01*
X16323952Y-15127476D02*
X16323952Y-14927476D01*
X16409667Y-15127476D02*
X16409667Y-15022714D01*
X16400143Y-15003667D01*
X16381095Y-14994143D01*
X16352524Y-14994143D01*
X16333476Y-15003667D01*
X16323952Y-15013190D01*
X16533476Y-15127476D02*
X16514428Y-15117952D01*
X16504905Y-15108428D01*
X16495381Y-15089381D01*
X16495381Y-15032238D01*
X16504905Y-15013190D01*
X16514428Y-15003667D01*
X16533476Y-14994143D01*
X16562048Y-14994143D01*
X16581095Y-15003667D01*
X16590619Y-15013190D01*
X16600143Y-15032238D01*
X16600143Y-15089381D01*
X16590619Y-15108428D01*
X16581095Y-15117952D01*
X16562048Y-15127476D01*
X16533476Y-15127476D01*
X16714428Y-15127476D02*
X16695381Y-15117952D01*
X16685857Y-15098905D01*
X16685857Y-14927476D01*
X16866810Y-15117952D02*
X16847762Y-15127476D01*
X16809667Y-15127476D01*
X16790619Y-15117952D01*
X16781095Y-15098905D01*
X16781095Y-15022714D01*
X16790619Y-15003667D01*
X16809667Y-14994143D01*
X16847762Y-14994143D01*
X16866810Y-15003667D01*
X16876333Y-15022714D01*
X16876333Y-15041762D01*
X16781095Y-15060809D01*
X16952524Y-15117952D02*
X16971571Y-15127476D01*
X17009667Y-15127476D01*
X17028714Y-15117952D01*
X17038238Y-15098905D01*
X17038238Y-15089381D01*
X17028714Y-15070333D01*
X17009667Y-15060809D01*
X16981095Y-15060809D01*
X16962048Y-15051286D01*
X16952524Y-15032238D01*
X16952524Y-15022714D01*
X16962048Y-15003667D01*
X16981095Y-14994143D01*
X17009667Y-14994143D01*
X17028714Y-15003667D01*
X17276333Y-15051286D02*
X17428714Y-15051286D01*
X17352524Y-15127476D02*
X17352524Y-14975095D01*
X17666810Y-14946524D02*
X17676333Y-14937000D01*
X17695381Y-14927476D01*
X17743000Y-14927476D01*
X17762048Y-14937000D01*
X17771571Y-14946524D01*
X17781095Y-14965571D01*
X17781095Y-14984619D01*
X17771571Y-15013190D01*
X17657286Y-15127476D01*
X17781095Y-15127476D01*
X18009667Y-15117952D02*
X18028714Y-15127476D01*
X18066810Y-15127476D01*
X18085857Y-15117952D01*
X18095381Y-15098905D01*
X18095381Y-15089381D01*
X18085857Y-15070333D01*
X18066810Y-15060809D01*
X18038238Y-15060809D01*
X18019190Y-15051286D01*
X18009667Y-15032238D01*
X18009667Y-15022714D01*
X18019190Y-15003667D01*
X18038238Y-14994143D01*
X18066810Y-14994143D01*
X18085857Y-15003667D01*
X18209667Y-15127476D02*
X18190619Y-15117952D01*
X18181095Y-15098905D01*
X18181095Y-14927476D01*
X18314429Y-15127476D02*
X18295381Y-15117952D01*
X18285857Y-15108428D01*
X18276333Y-15089381D01*
X18276333Y-15032238D01*
X18285857Y-15013190D01*
X18295381Y-15003667D01*
X18314429Y-14994143D01*
X18343000Y-14994143D01*
X18362048Y-15003667D01*
X18371571Y-15013190D01*
X18381095Y-15032238D01*
X18381095Y-15089381D01*
X18371571Y-15108428D01*
X18362048Y-15117952D01*
X18343000Y-15127476D01*
X18314429Y-15127476D01*
X18438238Y-14994143D02*
X18514429Y-14994143D01*
X18466810Y-14927476D02*
X18466810Y-15098905D01*
X18476333Y-15117952D01*
X18495381Y-15127476D01*
X18514429Y-15127476D01*
X18571571Y-15117952D02*
X18590619Y-15127476D01*
X18628714Y-15127476D01*
X18647762Y-15117952D01*
X18657286Y-15098905D01*
X18657286Y-15089381D01*
X18647762Y-15070333D01*
X18628714Y-15060809D01*
X18600143Y-15060809D01*
X18581095Y-15051286D01*
X18571571Y-15032238D01*
X18571571Y-15022714D01*
X18581095Y-15003667D01*
X18600143Y-14994143D01*
X18628714Y-14994143D01*
X18647762Y-15003667D01*
X18723952Y-15203667D02*
X18733476Y-15194143D01*
X18752524Y-15165571D01*
X18762048Y-15146524D01*
X18771571Y-15117952D01*
X18781095Y-15070333D01*
X18781095Y-15032238D01*
X18771571Y-14984619D01*
X18762048Y-14956048D01*
X18752524Y-14937000D01*
X18733476Y-14908428D01*
X18723952Y-14898905D01*
D10*
X12283000Y-15351000D02*
X12333000Y-15301000D01*
X12283000Y-15251000D01*
X12233000Y-15301000D01*
X12283000Y-15351000D01*
D11*
X12695381Y-15391476D02*
X12581095Y-15391476D01*
X12638238Y-15391476D02*
X12638238Y-15191476D01*
X12619190Y-15220048D01*
X12600143Y-15239095D01*
X12581095Y-15248619D01*
X12781095Y-15372428D02*
X12790619Y-15381952D01*
X12781095Y-15391476D01*
X12771571Y-15381952D01*
X12781095Y-15372428D01*
X12781095Y-15391476D01*
X12914428Y-15191476D02*
X12933476Y-15191476D01*
X12952524Y-15201000D01*
X12962048Y-15210524D01*
X12971571Y-15229571D01*
X12981095Y-15267667D01*
X12981095Y-15315286D01*
X12971571Y-15353381D01*
X12962048Y-15372428D01*
X12952524Y-15381952D01*
X12933476Y-15391476D01*
X12914428Y-15391476D01*
X12895381Y-15381952D01*
X12885857Y-15372428D01*
X12876333Y-15353381D01*
X12866809Y-15315286D01*
X12866809Y-15267667D01*
X12876333Y-15229571D01*
X12885857Y-15210524D01*
X12895381Y-15201000D01*
X12914428Y-15191476D01*
X13104905Y-15191476D02*
X13123952Y-15191476D01*
X13143000Y-15201000D01*
X13152524Y-15210524D01*
X13162048Y-15229571D01*
X13171571Y-15267667D01*
X13171571Y-15315286D01*
X13162048Y-15353381D01*
X13152524Y-15372428D01*
X13143000Y-15381952D01*
X13123952Y-15391476D01*
X13104905Y-15391476D01*
X13085857Y-15381952D01*
X13076333Y-15372428D01*
X13066809Y-15353381D01*
X13057286Y-15315286D01*
X13057286Y-15267667D01*
X13066809Y-15229571D01*
X13076333Y-15210524D01*
X13085857Y-15201000D01*
X13104905Y-15191476D01*
X13295381Y-15191476D02*
X13314428Y-15191476D01*
X13333476Y-15201000D01*
X13343000Y-15210524D01*
X13352524Y-15229571D01*
X13362048Y-15267667D01*
X13362048Y-15315286D01*
X13352524Y-15353381D01*
X13343000Y-15372428D01*
X13333476Y-15381952D01*
X13314428Y-15391476D01*
X13295381Y-15391476D01*
X13276333Y-15381952D01*
X13266809Y-15372428D01*
X13257286Y-15353381D01*
X13247762Y-15315286D01*
X13247762Y-15267667D01*
X13257286Y-15229571D01*
X13266809Y-15210524D01*
X13276333Y-15201000D01*
X13295381Y-15191476D01*
X13447762Y-15391476D02*
X13447762Y-15258143D01*
X13447762Y-15277190D02*
X13457286Y-15267667D01*
X13476333Y-15258143D01*
X13504905Y-15258143D01*
X13523952Y-15267667D01*
X13533476Y-15286714D01*
X13533476Y-15391476D01*
X13533476Y-15286714D02*
X13543000Y-15267667D01*
X13562048Y-15258143D01*
X13590619Y-15258143D01*
X13609667Y-15267667D01*
X13619190Y-15286714D01*
X13619190Y-15391476D01*
X13714428Y-15391476D02*
X13714428Y-15258143D01*
X13714428Y-15277190D02*
X13723952Y-15267667D01*
X13743000Y-15258143D01*
X13771571Y-15258143D01*
X13790619Y-15267667D01*
X13800143Y-15286714D01*
X13800143Y-15391476D01*
X13800143Y-15286714D02*
X13809667Y-15267667D01*
X13828714Y-15258143D01*
X13857286Y-15258143D01*
X13876333Y-15267667D01*
X13885857Y-15286714D01*
X13885857Y-15391476D01*
X14276333Y-15181952D02*
X14104905Y-15439095D01*
X14533476Y-15191476D02*
X14552524Y-15191476D01*
X14571571Y-15201000D01*
X14581095Y-15210524D01*
X14590619Y-15229571D01*
X14600143Y-15267667D01*
X14600143Y-15315286D01*
X14590619Y-15353381D01*
X14581095Y-15372428D01*
X14571571Y-15381952D01*
X14552524Y-15391476D01*
X14533476Y-15391476D01*
X14514428Y-15381952D01*
X14504905Y-15372428D01*
X14495381Y-15353381D01*
X14485857Y-15315286D01*
X14485857Y-15267667D01*
X14495381Y-15229571D01*
X14504905Y-15210524D01*
X14514428Y-15201000D01*
X14533476Y-15191476D01*
X14685857Y-15372428D02*
X14695381Y-15381952D01*
X14685857Y-15391476D01*
X14676333Y-15381952D01*
X14685857Y-15372428D01*
X14685857Y-15391476D01*
X14819190Y-15191476D02*
X14838238Y-15191476D01*
X14857286Y-15201000D01*
X14866809Y-15210524D01*
X14876333Y-15229571D01*
X14885857Y-15267667D01*
X14885857Y-15315286D01*
X14876333Y-15353381D01*
X14866809Y-15372428D01*
X14857286Y-15381952D01*
X14838238Y-15391476D01*
X14819190Y-15391476D01*
X14800143Y-15381952D01*
X14790619Y-15372428D01*
X14781095Y-15353381D01*
X14771571Y-15315286D01*
X14771571Y-15267667D01*
X14781095Y-15229571D01*
X14790619Y-15210524D01*
X14800143Y-15201000D01*
X14819190Y-15191476D01*
X14952524Y-15191476D02*
X15076333Y-15191476D01*
X15009667Y-15267667D01*
X15038238Y-15267667D01*
X15057286Y-15277190D01*
X15066809Y-15286714D01*
X15076333Y-15305762D01*
X15076333Y-15353381D01*
X15066809Y-15372428D01*
X15057286Y-15381952D01*
X15038238Y-15391476D01*
X14981095Y-15391476D01*
X14962048Y-15381952D01*
X14952524Y-15372428D01*
X15171571Y-15391476D02*
X15209667Y-15391476D01*
X15228714Y-15381952D01*
X15238238Y-15372428D01*
X15257286Y-15343857D01*
X15266809Y-15305762D01*
X15266809Y-15229571D01*
X15257286Y-15210524D01*
X15247762Y-15201000D01*
X15228714Y-15191476D01*
X15190619Y-15191476D01*
X15171571Y-15201000D01*
X15162048Y-15210524D01*
X15152524Y-15229571D01*
X15152524Y-15277190D01*
X15162048Y-15296238D01*
X15171571Y-15305762D01*
X15190619Y-15315286D01*
X15228714Y-15315286D01*
X15247762Y-15305762D01*
X15257286Y-15296238D01*
X15266809Y-15277190D01*
X15438238Y-15258143D02*
X15438238Y-15391476D01*
X15390619Y-15181952D02*
X15343000Y-15324809D01*
X15466809Y-15324809D01*
X15533476Y-15191476D02*
X15533476Y-15229571D01*
X15609667Y-15191476D02*
X15609667Y-15229571D01*
X15904905Y-15467667D02*
X15895381Y-15458143D01*
X15876333Y-15429571D01*
X15866809Y-15410524D01*
X15857286Y-15381952D01*
X15847762Y-15334333D01*
X15847762Y-15296238D01*
X15857286Y-15248619D01*
X15866809Y-15220048D01*
X15876333Y-15201000D01*
X15895381Y-15172428D01*
X15904905Y-15162905D01*
X15971571Y-15210524D02*
X15981095Y-15201000D01*
X16000143Y-15191476D01*
X16047762Y-15191476D01*
X16066809Y-15201000D01*
X16076333Y-15210524D01*
X16085857Y-15229571D01*
X16085857Y-15248619D01*
X16076333Y-15277190D01*
X15962048Y-15391476D01*
X16085857Y-15391476D01*
X16257286Y-15191476D02*
X16219190Y-15191476D01*
X16200143Y-15201000D01*
X16190619Y-15210524D01*
X16171571Y-15239095D01*
X16162048Y-15277190D01*
X16162048Y-15353381D01*
X16171571Y-15372428D01*
X16181095Y-15381952D01*
X16200143Y-15391476D01*
X16238238Y-15391476D01*
X16257286Y-15381952D01*
X16266809Y-15372428D01*
X16276333Y-15353381D01*
X16276333Y-15305762D01*
X16266809Y-15286714D01*
X16257286Y-15277190D01*
X16238238Y-15267667D01*
X16200143Y-15267667D01*
X16181095Y-15277190D01*
X16171571Y-15286714D01*
X16162048Y-15305762D01*
X16514428Y-15391476D02*
X16514428Y-15191476D01*
X16600143Y-15391476D02*
X16600143Y-15286714D01*
X16590619Y-15267667D01*
X16571571Y-15258143D01*
X16543000Y-15258143D01*
X16523952Y-15267667D01*
X16514428Y-15277190D01*
X16723952Y-15391476D02*
X16704905Y-15381952D01*
X16695381Y-15372428D01*
X16685857Y-15353381D01*
X16685857Y-15296238D01*
X16695381Y-15277190D01*
X16704905Y-15267667D01*
X16723952Y-15258143D01*
X16752524Y-15258143D01*
X16771571Y-15267667D01*
X16781095Y-15277190D01*
X16790619Y-15296238D01*
X16790619Y-15353381D01*
X16781095Y-15372428D01*
X16771571Y-15381952D01*
X16752524Y-15391476D01*
X16723952Y-15391476D01*
X16904905Y-15391476D02*
X16885857Y-15381952D01*
X16876333Y-15362905D01*
X16876333Y-15191476D01*
X17057286Y-15381952D02*
X17038238Y-15391476D01*
X17000143Y-15391476D01*
X16981095Y-15381952D01*
X16971571Y-15362905D01*
X16971571Y-15286714D01*
X16981095Y-15267667D01*
X17000143Y-15258143D01*
X17038238Y-15258143D01*
X17057286Y-15267667D01*
X17066810Y-15286714D01*
X17066810Y-15305762D01*
X16971571Y-15324809D01*
X17143000Y-15381952D02*
X17162048Y-15391476D01*
X17200143Y-15391476D01*
X17219190Y-15381952D01*
X17228714Y-15362905D01*
X17228714Y-15353381D01*
X17219190Y-15334333D01*
X17200143Y-15324809D01*
X17171571Y-15324809D01*
X17152524Y-15315286D01*
X17143000Y-15296238D01*
X17143000Y-15286714D01*
X17152524Y-15267667D01*
X17171571Y-15258143D01*
X17200143Y-15258143D01*
X17219190Y-15267667D01*
X17295381Y-15467667D02*
X17304905Y-15458143D01*
X17323952Y-15429571D01*
X17333476Y-15410524D01*
X17343000Y-15381952D01*
X17352524Y-15334333D01*
X17352524Y-15296238D01*
X17343000Y-15248619D01*
X17333476Y-15220048D01*
X17323952Y-15201000D01*
X17304905Y-15172428D01*
X17295381Y-15162905D01*
M02*
