%TF.GenerationSoftware,KiCad,Pcbnew,6.0.7-f9a2dced07~116~ubuntu20.04.1*%
%TF.CreationDate,2022-09-13T19:05:17+02:00*%
%TF.ProjectId,Qoobinno,516f6f62-696e-46e6-9f2e-6b696361645f,rev?*%
%TF.SameCoordinates,Original*%
%TF.FileFunction,Soldermask,Top*%
%TF.FilePolarity,Negative*%
%FSLAX46Y46*%
G04 Gerber Fmt 4.6, Leading zero omitted, Abs format (unit mm)*
G04 Created by KiCad (PCBNEW 6.0.7-f9a2dced07~116~ubuntu20.04.1) date 2022-09-13 19:05:17*
%MOMM*%
%LPD*%
G01*
G04 APERTURE LIST*
G04 Aperture macros list*
%AMRoundRect*
0 Rectangle with rounded corners*
0 $1 Rounding radius*
0 $2 $3 $4 $5 $6 $7 $8 $9 X,Y pos of 4 corners*
0 Add a 4 corners polygon primitive as box body*
4,1,4,$2,$3,$4,$5,$6,$7,$8,$9,$2,$3,0*
0 Add four circle primitives for the rounded corners*
1,1,$1+$1,$2,$3*
1,1,$1+$1,$4,$5*
1,1,$1+$1,$6,$7*
1,1,$1+$1,$8,$9*
0 Add four rect primitives between the rounded corners*
20,1,$1+$1,$2,$3,$4,$5,0*
20,1,$1+$1,$4,$5,$6,$7,0*
20,1,$1+$1,$6,$7,$8,$9,0*
20,1,$1+$1,$8,$9,$2,$3,0*%
%AMRotRect*
0 Rectangle, with rotation*
0 The origin of the aperture is its center*
0 $1 length*
0 $2 width*
0 $3 Rotation angle, in degrees counterclockwise*
0 Add horizontal line*
21,1,$1,$2,0,0,$3*%
G04 Aperture macros list end*
%ADD10RoundRect,0.200000X-0.800000X0.200000X-0.800000X-0.200000X0.800000X-0.200000X0.800000X0.200000X0*%
%ADD11RoundRect,0.250000X-0.475000X0.250000X-0.475000X-0.250000X0.475000X-0.250000X0.475000X0.250000X0*%
%ADD12RoundRect,0.250000X-0.325000X-0.650000X0.325000X-0.650000X0.325000X0.650000X-0.325000X0.650000X0*%
%ADD13RoundRect,0.250000X0.312500X0.625000X-0.312500X0.625000X-0.312500X-0.625000X0.312500X-0.625000X0*%
%ADD14RoundRect,0.250000X0.625000X-0.375000X0.625000X0.375000X-0.625000X0.375000X-0.625000X-0.375000X0*%
%ADD15RoundRect,0.250000X-0.312500X-0.625000X0.312500X-0.625000X0.312500X0.625000X-0.312500X0.625000X0*%
%ADD16RoundRect,0.250000X-0.689429X-0.229810X-0.229810X-0.689429X0.689429X0.229810X0.229810X0.689429X0*%
%ADD17C,1.700000*%
%ADD18RoundRect,0.250000X-0.625000X0.312500X-0.625000X-0.312500X0.625000X-0.312500X0.625000X0.312500X0*%
%ADD19RoundRect,0.200000X0.800000X-0.200000X0.800000X0.200000X-0.800000X0.200000X-0.800000X-0.200000X0*%
%ADD20RoundRect,0.250000X0.625000X-0.312500X0.625000X0.312500X-0.625000X0.312500X-0.625000X-0.312500X0*%
%ADD21RoundRect,0.250000X-0.625000X0.375000X-0.625000X-0.375000X0.625000X-0.375000X0.625000X0.375000X0*%
%ADD22R,0.600000X1.100000*%
%ADD23R,0.300000X1.100000*%
%ADD24O,1.000000X2.200000*%
%ADD25O,1.000000X1.800000*%
%ADD26R,1.400000X1.200000*%
%ADD27C,1.000000*%
%ADD28RoundRect,0.250000X-0.229810X0.689429X-0.689429X0.229810X0.229810X-0.689429X0.689429X-0.229810X0*%
%ADD29RotRect,1.500000X0.550000X45.000000*%
%ADD30RotRect,1.500000X0.550000X135.000000*%
%ADD31RotRect,4.500000X4.500000X45.000000*%
%ADD32R,2.400000X1.500000*%
%ADD33R,1.050000X1.500000*%
%ADD34RoundRect,0.243750X-0.243750X-0.456250X0.243750X-0.456250X0.243750X0.456250X-0.243750X0.456250X0*%
%ADD35RoundRect,0.250000X0.475000X-0.250000X0.475000X0.250000X-0.475000X0.250000X-0.475000X-0.250000X0*%
%ADD36R,1.500000X1.100000*%
G04 APERTURE END LIST*
D10*
%TO.C,SW1*%
X128650000Y-75160000D03*
X128650000Y-79360000D03*
%TD*%
D11*
%TO.C,C1*%
X156440000Y-106350000D03*
X156440000Y-108250000D03*
%TD*%
D12*
%TO.C,C5*%
X154545000Y-77740000D03*
X157495000Y-77740000D03*
%TD*%
%TO.C,C3*%
X148785000Y-77630000D03*
X151735000Y-77630000D03*
%TD*%
D13*
%TO.C,R9*%
X153005000Y-122810000D03*
X150080000Y-122810000D03*
%TD*%
D14*
%TO.C,D2*%
X129100000Y-58582500D03*
X129100000Y-55782500D03*
%TD*%
D15*
%TO.C,R4*%
X136715000Y-95650000D03*
X139640000Y-95650000D03*
%TD*%
D16*
%TO.C,C6*%
X160908768Y-84888768D03*
X162994734Y-86974734D03*
%TD*%
D17*
%TO.C,J3*%
X127000000Y-105410000D03*
X127000000Y-107950000D03*
X127000000Y-110490000D03*
X127000000Y-113030000D03*
X127000000Y-115570000D03*
X127000000Y-118110000D03*
X127000000Y-120650000D03*
X127000000Y-123190000D03*
X127000000Y-125730000D03*
X127000000Y-128270000D03*
X127000000Y-130810000D03*
X127000000Y-133350000D03*
%TD*%
D18*
%TO.C,R3*%
X165240000Y-61277500D03*
X165240000Y-64202500D03*
%TD*%
D19*
%TO.C,SW2*%
X172380000Y-79360000D03*
X172380000Y-75160000D03*
%TD*%
D20*
%TO.C,R8*%
X146407522Y-127812500D03*
X146407522Y-124887500D03*
%TD*%
%TO.C,R6*%
X172380000Y-85802500D03*
X172380000Y-82877500D03*
%TD*%
D18*
%TO.C,R7*%
X128650000Y-83467500D03*
X128650000Y-86392500D03*
%TD*%
D21*
%TO.C,D4*%
X165240000Y-55822500D03*
X165240000Y-58622500D03*
%TD*%
D22*
%TO.C,J1*%
X153580000Y-59250000D03*
X152780000Y-59250000D03*
D23*
X151630000Y-59250000D03*
X150630000Y-59250000D03*
X150130000Y-59250000D03*
X149130000Y-59250000D03*
D22*
X147980000Y-59250000D03*
X147180000Y-59250000D03*
X147180000Y-59250000D03*
X147980000Y-59250000D03*
D23*
X148630000Y-59250000D03*
X149630000Y-59250000D03*
X151130000Y-59250000D03*
X152130000Y-59250000D03*
D22*
X152780000Y-59250000D03*
X153580000Y-59250000D03*
D24*
X156000000Y-54100000D03*
X144760000Y-54100000D03*
D25*
X156000000Y-58100000D03*
X144760000Y-58100000D03*
%TD*%
D15*
%TO.C,R5*%
X136765000Y-98650000D03*
X139690000Y-98650000D03*
%TD*%
D13*
%TO.C,C8*%
X141412500Y-102410000D03*
X138487500Y-102410000D03*
%TD*%
D20*
%TO.C,R10*%
X156180000Y-127812500D03*
X156180000Y-124887500D03*
%TD*%
D26*
%TO.C,X1*%
X152420000Y-106500000D03*
X150220000Y-106500000D03*
X150220000Y-108100000D03*
X152420000Y-108100000D03*
%TD*%
D27*
%TO.C,J2*%
X149725000Y-63730000D03*
X150995000Y-63730000D03*
%TD*%
D18*
%TO.C,R2*%
X171160000Y-61377500D03*
X171160000Y-64302500D03*
%TD*%
D28*
%TO.C,C7*%
X140244734Y-87885266D03*
X138158768Y-89971232D03*
%TD*%
D29*
%TO.C,U1*%
X144271064Y-93060762D03*
X144836750Y-93626447D03*
X145402435Y-94192132D03*
X145968120Y-94757818D03*
X146533806Y-95323503D03*
X147099491Y-95889189D03*
X147665177Y-96454874D03*
X148230862Y-97020560D03*
X148796548Y-97586245D03*
X149362233Y-98151930D03*
X149927918Y-98717616D03*
D30*
X152332082Y-98717616D03*
X152897767Y-98151930D03*
X153463452Y-97586245D03*
X154029138Y-97020560D03*
X154594823Y-96454874D03*
X155160509Y-95889189D03*
X155726194Y-95323503D03*
X156291880Y-94757818D03*
X156857565Y-94192132D03*
X157423250Y-93626447D03*
X157988936Y-93060762D03*
D29*
X157988936Y-90656598D03*
X157423250Y-90090913D03*
X156857565Y-89525228D03*
X156291880Y-88959542D03*
X155726194Y-88393857D03*
X155160509Y-87828171D03*
X154594823Y-87262486D03*
X154029138Y-86696800D03*
X153463452Y-86131115D03*
X152897767Y-85565430D03*
X152332082Y-84999744D03*
D30*
X149927918Y-84999744D03*
X149362233Y-85565430D03*
X148796548Y-86131115D03*
X148230862Y-86696800D03*
X147665177Y-87262486D03*
X147099491Y-87828171D03*
X146533806Y-88393857D03*
X145968120Y-88959542D03*
X145402435Y-89525228D03*
X144836750Y-90090913D03*
X144271064Y-90656598D03*
D31*
X151130000Y-91858680D03*
%TD*%
D17*
%TO.C,J4*%
X173990000Y-105410000D03*
X173990000Y-107950000D03*
X173990000Y-110490000D03*
X173990000Y-113030000D03*
X173990000Y-115570000D03*
X173990000Y-118110000D03*
X173990000Y-120650000D03*
X173990000Y-123190000D03*
X173990000Y-125730000D03*
X173990000Y-128270000D03*
X173990000Y-130810000D03*
X173990000Y-133350000D03*
%TD*%
D21*
%TO.C,D3*%
X171160000Y-55822500D03*
X171160000Y-58622500D03*
%TD*%
D32*
%TO.C,D1*%
X154570000Y-67540000D03*
D33*
X152195000Y-67540000D03*
%TD*%
D18*
%TO.C,R1*%
X129100000Y-61965000D03*
X129100000Y-64890000D03*
%TD*%
D13*
%TO.C,C4*%
X146685000Y-102410000D03*
X143760000Y-102410000D03*
%TD*%
D34*
%TO.C,F1*%
X146182500Y-67540000D03*
X148057500Y-67540000D03*
%TD*%
D35*
%TO.C,C2*%
X146050000Y-108250000D03*
X146050000Y-106350000D03*
%TD*%
D36*
%TO.C,D5*%
X149925044Y-125570000D03*
X152925044Y-125570000D03*
X152925044Y-127070000D03*
X149925044Y-127070000D03*
%TD*%
M02*
