%TF.GenerationSoftware,KiCad,Pcbnew,6.0.7-f9a2dced07~116~ubuntu20.04.1*%
%TF.CreationDate,2022-09-13T19:05:17+02:00*%
%TF.ProjectId,Qoobinno,516f6f62-696e-46e6-9f2e-6b696361645f,rev?*%
%TF.SameCoordinates,Original*%
%TF.FileFunction,Legend,Bot*%
%TF.FilePolarity,Positive*%
%FSLAX46Y46*%
G04 Gerber Fmt 4.6, Leading zero omitted, Abs format (unit mm)*
G04 Created by KiCad (PCBNEW 6.0.7-f9a2dced07~116~ubuntu20.04.1) date 2022-09-13 19:05:17*
%MOMM*%
%LPD*%
G01*
G04 APERTURE LIST*
%ADD10C,0.150000*%
%ADD11C,1.700000*%
%ADD12O,1.000000X2.200000*%
%ADD13O,1.000000X1.800000*%
%ADD14C,1.000000*%
G04 APERTURE END LIST*
D10*
X157103809Y-128252619D02*
X157199047Y-128205000D01*
X157294285Y-128109761D01*
X157437142Y-127966904D01*
X157532380Y-127919285D01*
X157627619Y-127919285D01*
X157580000Y-128157380D02*
X157675238Y-128109761D01*
X157770476Y-128014523D01*
X157818095Y-127824047D01*
X157818095Y-127490714D01*
X157770476Y-127300238D01*
X157675238Y-127205000D01*
X157580000Y-127157380D01*
X157389523Y-127157380D01*
X157294285Y-127205000D01*
X157199047Y-127300238D01*
X157151428Y-127490714D01*
X157151428Y-127824047D01*
X157199047Y-128014523D01*
X157294285Y-128109761D01*
X157389523Y-128157380D01*
X157580000Y-128157380D01*
X156580000Y-128157380D02*
X156675238Y-128109761D01*
X156722857Y-128062142D01*
X156770476Y-127966904D01*
X156770476Y-127681190D01*
X156722857Y-127585952D01*
X156675238Y-127538333D01*
X156580000Y-127490714D01*
X156437142Y-127490714D01*
X156341904Y-127538333D01*
X156294285Y-127585952D01*
X156246666Y-127681190D01*
X156246666Y-127966904D01*
X156294285Y-128062142D01*
X156341904Y-128109761D01*
X156437142Y-128157380D01*
X156580000Y-128157380D01*
X155675238Y-128157380D02*
X155770476Y-128109761D01*
X155818095Y-128062142D01*
X155865714Y-127966904D01*
X155865714Y-127681190D01*
X155818095Y-127585952D01*
X155770476Y-127538333D01*
X155675238Y-127490714D01*
X155532380Y-127490714D01*
X155437142Y-127538333D01*
X155389523Y-127585952D01*
X155341904Y-127681190D01*
X155341904Y-127966904D01*
X155389523Y-128062142D01*
X155437142Y-128109761D01*
X155532380Y-128157380D01*
X155675238Y-128157380D01*
X154913333Y-128157380D02*
X154913333Y-127157380D01*
X154913333Y-127538333D02*
X154818095Y-127490714D01*
X154627619Y-127490714D01*
X154532380Y-127538333D01*
X154484761Y-127585952D01*
X154437142Y-127681190D01*
X154437142Y-127966904D01*
X154484761Y-128062142D01*
X154532380Y-128109761D01*
X154627619Y-128157380D01*
X154818095Y-128157380D01*
X154913333Y-128109761D01*
X154008571Y-128157380D02*
X154008571Y-127490714D01*
X154008571Y-127157380D02*
X154056190Y-127205000D01*
X154008571Y-127252619D01*
X153960952Y-127205000D01*
X154008571Y-127157380D01*
X154008571Y-127252619D01*
X153532380Y-127490714D02*
X153532380Y-128157380D01*
X153532380Y-127585952D02*
X153484761Y-127538333D01*
X153389523Y-127490714D01*
X153246666Y-127490714D01*
X153151428Y-127538333D01*
X153103809Y-127633571D01*
X153103809Y-128157380D01*
X152627619Y-127490714D02*
X152627619Y-128157380D01*
X152627619Y-127585952D02*
X152580000Y-127538333D01*
X152484761Y-127490714D01*
X152341904Y-127490714D01*
X152246666Y-127538333D01*
X152199047Y-127633571D01*
X152199047Y-128157380D01*
X151580000Y-128157380D02*
X151675238Y-128109761D01*
X151722857Y-128062142D01*
X151770476Y-127966904D01*
X151770476Y-127681190D01*
X151722857Y-127585952D01*
X151675238Y-127538333D01*
X151580000Y-127490714D01*
X151437142Y-127490714D01*
X151341904Y-127538333D01*
X151294285Y-127585952D01*
X151246666Y-127681190D01*
X151246666Y-127966904D01*
X151294285Y-128062142D01*
X151341904Y-128109761D01*
X151437142Y-128157380D01*
X151580000Y-128157380D01*
X150151428Y-127490714D02*
X149913333Y-128157380D01*
X149675238Y-127490714D01*
X149341904Y-127252619D02*
X149294285Y-127205000D01*
X149199047Y-127157380D01*
X148960952Y-127157380D01*
X148865714Y-127205000D01*
X148818095Y-127252619D01*
X148770476Y-127347857D01*
X148770476Y-127443095D01*
X148818095Y-127585952D01*
X149389523Y-128157380D01*
X148770476Y-128157380D01*
X148341904Y-128062142D02*
X148294285Y-128109761D01*
X148341904Y-128157380D01*
X148389523Y-128109761D01*
X148341904Y-128062142D01*
X148341904Y-128157380D01*
X147675238Y-127157380D02*
X147580000Y-127157380D01*
X147484761Y-127205000D01*
X147437142Y-127252619D01*
X147389523Y-127347857D01*
X147341904Y-127538333D01*
X147341904Y-127776428D01*
X147389523Y-127966904D01*
X147437142Y-128062142D01*
X147484761Y-128109761D01*
X147580000Y-128157380D01*
X147675238Y-128157380D01*
X147770476Y-128109761D01*
X147818095Y-128062142D01*
X147865714Y-127966904D01*
X147913333Y-127776428D01*
X147913333Y-127538333D01*
X147865714Y-127347857D01*
X147818095Y-127252619D01*
X147770476Y-127205000D01*
X147675238Y-127157380D01*
X160080000Y-129767380D02*
X160080000Y-128767380D01*
X159746666Y-129481666D01*
X159413333Y-128767380D01*
X159413333Y-129767380D01*
X158508571Y-129767380D02*
X158508571Y-129243571D01*
X158556190Y-129148333D01*
X158651428Y-129100714D01*
X158841904Y-129100714D01*
X158937142Y-129148333D01*
X158508571Y-129719761D02*
X158603809Y-129767380D01*
X158841904Y-129767380D01*
X158937142Y-129719761D01*
X158984761Y-129624523D01*
X158984761Y-129529285D01*
X158937142Y-129434047D01*
X158841904Y-129386428D01*
X158603809Y-129386428D01*
X158508571Y-129338809D01*
X157603809Y-129767380D02*
X157603809Y-128767380D01*
X157603809Y-129719761D02*
X157699047Y-129767380D01*
X157889523Y-129767380D01*
X157984761Y-129719761D01*
X158032380Y-129672142D01*
X158080000Y-129576904D01*
X158080000Y-129291190D01*
X158032380Y-129195952D01*
X157984761Y-129148333D01*
X157889523Y-129100714D01*
X157699047Y-129100714D01*
X157603809Y-129148333D01*
X156746666Y-129719761D02*
X156841904Y-129767380D01*
X157032380Y-129767380D01*
X157127619Y-129719761D01*
X157175238Y-129624523D01*
X157175238Y-129243571D01*
X157127619Y-129148333D01*
X157032380Y-129100714D01*
X156841904Y-129100714D01*
X156746666Y-129148333D01*
X156699047Y-129243571D01*
X156699047Y-129338809D01*
X157175238Y-129434047D01*
X155603809Y-128767380D02*
X155365714Y-129767380D01*
X155175238Y-129053095D01*
X154984761Y-129767380D01*
X154746666Y-128767380D01*
X154365714Y-129767380D02*
X154365714Y-129100714D01*
X154365714Y-128767380D02*
X154413333Y-128815000D01*
X154365714Y-128862619D01*
X154318095Y-128815000D01*
X154365714Y-128767380D01*
X154365714Y-128862619D01*
X154032380Y-129100714D02*
X153651428Y-129100714D01*
X153889523Y-128767380D02*
X153889523Y-129624523D01*
X153841904Y-129719761D01*
X153746666Y-129767380D01*
X153651428Y-129767380D01*
X153318095Y-129767380D02*
X153318095Y-128767380D01*
X152889523Y-129767380D02*
X152889523Y-129243571D01*
X152937142Y-129148333D01*
X153032380Y-129100714D01*
X153175238Y-129100714D01*
X153270476Y-129148333D01*
X153318095Y-129195952D01*
X151175238Y-129767380D02*
X151651428Y-129767380D01*
X151651428Y-128767380D01*
X150699047Y-129767380D02*
X150794285Y-129719761D01*
X150841904Y-129672142D01*
X150889523Y-129576904D01*
X150889523Y-129291190D01*
X150841904Y-129195952D01*
X150794285Y-129148333D01*
X150699047Y-129100714D01*
X150556190Y-129100714D01*
X150460952Y-129148333D01*
X150413333Y-129195952D01*
X150365714Y-129291190D01*
X150365714Y-129576904D01*
X150413333Y-129672142D01*
X150460952Y-129719761D01*
X150556190Y-129767380D01*
X150699047Y-129767380D01*
X150032380Y-129100714D02*
X149794285Y-129767380D01*
X149556190Y-129100714D01*
X148794285Y-129719761D02*
X148889523Y-129767380D01*
X149080000Y-129767380D01*
X149175238Y-129719761D01*
X149222857Y-129624523D01*
X149222857Y-129243571D01*
X149175238Y-129148333D01*
X149080000Y-129100714D01*
X148889523Y-129100714D01*
X148794285Y-129148333D01*
X148746666Y-129243571D01*
X148746666Y-129338809D01*
X149222857Y-129434047D01*
X146794285Y-129100714D02*
X147556190Y-129386428D01*
X146794285Y-129672142D01*
X146413333Y-128767380D02*
X145794285Y-128767380D01*
X146127619Y-129148333D01*
X145984761Y-129148333D01*
X145889523Y-129195952D01*
X145841904Y-129243571D01*
X145794285Y-129338809D01*
X145794285Y-129576904D01*
X145841904Y-129672142D01*
X145889523Y-129719761D01*
X145984761Y-129767380D01*
X146270476Y-129767380D01*
X146365714Y-129719761D01*
X146413333Y-129672142D01*
X156032380Y-131377380D02*
X156032380Y-130377380D01*
X155556190Y-130710714D02*
X155556190Y-131377380D01*
X155556190Y-130805952D02*
X155508571Y-130758333D01*
X155413333Y-130710714D01*
X155270476Y-130710714D01*
X155175238Y-130758333D01*
X155127619Y-130853571D01*
X155127619Y-131377380D01*
X154032380Y-130377380D02*
X153460952Y-130377380D01*
X153746666Y-131377380D02*
X153746666Y-130377380D01*
X152699047Y-130710714D02*
X152699047Y-131377380D01*
X153127619Y-130710714D02*
X153127619Y-131234523D01*
X153080000Y-131329761D01*
X152984761Y-131377380D01*
X152841904Y-131377380D01*
X152746666Y-131329761D01*
X152699047Y-131282142D01*
X152222857Y-130710714D02*
X152222857Y-131377380D01*
X152222857Y-130805952D02*
X152175238Y-130758333D01*
X152080000Y-130710714D01*
X151937142Y-130710714D01*
X151841904Y-130758333D01*
X151794285Y-130853571D01*
X151794285Y-131377380D01*
X151318095Y-131377380D02*
X151318095Y-130710714D01*
X151318095Y-130377380D02*
X151365714Y-130425000D01*
X151318095Y-130472619D01*
X151270476Y-130425000D01*
X151318095Y-130377380D01*
X151318095Y-130472619D01*
X150889523Y-131329761D02*
X150794285Y-131377380D01*
X150603809Y-131377380D01*
X150508571Y-131329761D01*
X150460952Y-131234523D01*
X150460952Y-131186904D01*
X150508571Y-131091666D01*
X150603809Y-131044047D01*
X150746666Y-131044047D01*
X150841904Y-130996428D01*
X150889523Y-130901190D01*
X150889523Y-130853571D01*
X150841904Y-130758333D01*
X150746666Y-130710714D01*
X150603809Y-130710714D01*
X150508571Y-130758333D01*
X150032380Y-131377380D02*
X150032380Y-130710714D01*
X150032380Y-130377380D02*
X150080000Y-130425000D01*
X150032380Y-130472619D01*
X149984761Y-130425000D01*
X150032380Y-130377380D01*
X150032380Y-130472619D01*
X149127619Y-131377380D02*
X149127619Y-130853571D01*
X149175238Y-130758333D01*
X149270476Y-130710714D01*
X149460952Y-130710714D01*
X149556190Y-130758333D01*
X149127619Y-131329761D02*
X149222857Y-131377380D01*
X149460952Y-131377380D01*
X149556190Y-131329761D01*
X149603809Y-131234523D01*
X149603809Y-131139285D01*
X149556190Y-131044047D01*
X149460952Y-130996428D01*
X149222857Y-130996428D01*
X149127619Y-130948809D01*
X162913333Y-132320714D02*
X162722857Y-132987380D01*
X162532380Y-132511190D01*
X162341904Y-132987380D01*
X162151428Y-132320714D01*
X161865714Y-132320714D02*
X161675238Y-132987380D01*
X161484761Y-132511190D01*
X161294285Y-132987380D01*
X161103809Y-132320714D01*
X160818095Y-132320714D02*
X160627619Y-132987380D01*
X160437142Y-132511190D01*
X160246666Y-132987380D01*
X160056190Y-132320714D01*
X159675238Y-132892142D02*
X159627619Y-132939761D01*
X159675238Y-132987380D01*
X159722857Y-132939761D01*
X159675238Y-132892142D01*
X159675238Y-132987380D01*
X159199047Y-132987380D02*
X159199047Y-131987380D01*
X159199047Y-132368333D02*
X159103809Y-132320714D01*
X158913333Y-132320714D01*
X158818095Y-132368333D01*
X158770476Y-132415952D01*
X158722857Y-132511190D01*
X158722857Y-132796904D01*
X158770476Y-132892142D01*
X158818095Y-132939761D01*
X158913333Y-132987380D01*
X159103809Y-132987380D01*
X159199047Y-132939761D01*
X158151428Y-132987380D02*
X158246666Y-132939761D01*
X158294285Y-132892142D01*
X158341904Y-132796904D01*
X158341904Y-132511190D01*
X158294285Y-132415952D01*
X158246666Y-132368333D01*
X158151428Y-132320714D01*
X158008571Y-132320714D01*
X157913333Y-132368333D01*
X157865714Y-132415952D01*
X157818095Y-132511190D01*
X157818095Y-132796904D01*
X157865714Y-132892142D01*
X157913333Y-132939761D01*
X158008571Y-132987380D01*
X158151428Y-132987380D01*
X156960952Y-132320714D02*
X156960952Y-132987380D01*
X157389523Y-132320714D02*
X157389523Y-132844523D01*
X157341904Y-132939761D01*
X157246666Y-132987380D01*
X157103809Y-132987380D01*
X157008571Y-132939761D01*
X156960952Y-132892142D01*
X156532380Y-132939761D02*
X156437142Y-132987380D01*
X156246666Y-132987380D01*
X156151428Y-132939761D01*
X156103809Y-132844523D01*
X156103809Y-132796904D01*
X156151428Y-132701666D01*
X156246666Y-132654047D01*
X156389523Y-132654047D01*
X156484761Y-132606428D01*
X156532380Y-132511190D01*
X156532380Y-132463571D01*
X156484761Y-132368333D01*
X156389523Y-132320714D01*
X156246666Y-132320714D01*
X156151428Y-132368333D01*
X155722857Y-132939761D02*
X155627619Y-132987380D01*
X155437142Y-132987380D01*
X155341904Y-132939761D01*
X155294285Y-132844523D01*
X155294285Y-132796904D01*
X155341904Y-132701666D01*
X155437142Y-132654047D01*
X155580000Y-132654047D01*
X155675238Y-132606428D01*
X155722857Y-132511190D01*
X155722857Y-132463571D01*
X155675238Y-132368333D01*
X155580000Y-132320714D01*
X155437142Y-132320714D01*
X155341904Y-132368333D01*
X154484761Y-132939761D02*
X154580000Y-132987380D01*
X154770476Y-132987380D01*
X154865714Y-132939761D01*
X154913333Y-132844523D01*
X154913333Y-132463571D01*
X154865714Y-132368333D01*
X154770476Y-132320714D01*
X154580000Y-132320714D01*
X154484761Y-132368333D01*
X154437142Y-132463571D01*
X154437142Y-132558809D01*
X154913333Y-132654047D01*
X153865714Y-132987380D02*
X153960952Y-132939761D01*
X154008571Y-132844523D01*
X154008571Y-131987380D01*
X153484761Y-132987380D02*
X153484761Y-132320714D01*
X153484761Y-132415952D02*
X153437142Y-132368333D01*
X153341904Y-132320714D01*
X153199047Y-132320714D01*
X153103809Y-132368333D01*
X153056190Y-132463571D01*
X153056190Y-132987380D01*
X153056190Y-132463571D02*
X153008571Y-132368333D01*
X152913333Y-132320714D01*
X152770476Y-132320714D01*
X152675238Y-132368333D01*
X152627619Y-132463571D01*
X152627619Y-132987380D01*
X152151428Y-132987380D02*
X152151428Y-132320714D01*
X152151428Y-131987380D02*
X152199047Y-132035000D01*
X152151428Y-132082619D01*
X152103809Y-132035000D01*
X152151428Y-131987380D01*
X152151428Y-132082619D01*
X151675238Y-132892142D02*
X151627619Y-132939761D01*
X151675238Y-132987380D01*
X151722857Y-132939761D01*
X151675238Y-132892142D01*
X151675238Y-132987380D01*
X151341904Y-132320714D02*
X150960952Y-132320714D01*
X151199047Y-131987380D02*
X151199047Y-132844523D01*
X151151428Y-132939761D01*
X151056190Y-132987380D01*
X150960952Y-132987380D01*
X150627619Y-132320714D02*
X150627619Y-132987380D01*
X150627619Y-132415952D02*
X150580000Y-132368333D01*
X150484761Y-132320714D01*
X150341904Y-132320714D01*
X150246666Y-132368333D01*
X150199047Y-132463571D01*
X150199047Y-132987380D01*
X149008571Y-131939761D02*
X149865714Y-133225476D01*
X148246666Y-132320714D02*
X148246666Y-133320714D01*
X148246666Y-132939761D02*
X148341904Y-132987380D01*
X148532380Y-132987380D01*
X148627619Y-132939761D01*
X148675238Y-132892142D01*
X148722857Y-132796904D01*
X148722857Y-132511190D01*
X148675238Y-132415952D01*
X148627619Y-132368333D01*
X148532380Y-132320714D01*
X148341904Y-132320714D01*
X148246666Y-132368333D01*
X147627619Y-132987380D02*
X147722857Y-132939761D01*
X147770476Y-132892142D01*
X147818095Y-132796904D01*
X147818095Y-132511190D01*
X147770476Y-132415952D01*
X147722857Y-132368333D01*
X147627619Y-132320714D01*
X147484761Y-132320714D01*
X147389523Y-132368333D01*
X147341904Y-132415952D01*
X147294285Y-132511190D01*
X147294285Y-132796904D01*
X147341904Y-132892142D01*
X147389523Y-132939761D01*
X147484761Y-132987380D01*
X147627619Y-132987380D01*
X146722857Y-132987380D02*
X146818095Y-132939761D01*
X146865714Y-132892142D01*
X146913333Y-132796904D01*
X146913333Y-132511190D01*
X146865714Y-132415952D01*
X146818095Y-132368333D01*
X146722857Y-132320714D01*
X146580000Y-132320714D01*
X146484761Y-132368333D01*
X146437142Y-132415952D01*
X146389523Y-132511190D01*
X146389523Y-132796904D01*
X146437142Y-132892142D01*
X146484761Y-132939761D01*
X146580000Y-132987380D01*
X146722857Y-132987380D01*
X145960952Y-132987380D02*
X145960952Y-131987380D01*
X145960952Y-132368333D02*
X145865714Y-132320714D01*
X145675238Y-132320714D01*
X145580000Y-132368333D01*
X145532380Y-132415952D01*
X145484761Y-132511190D01*
X145484761Y-132796904D01*
X145532380Y-132892142D01*
X145580000Y-132939761D01*
X145675238Y-132987380D01*
X145865714Y-132987380D01*
X145960952Y-132939761D01*
X145056190Y-132987380D02*
X145056190Y-132320714D01*
X145056190Y-131987380D02*
X145103809Y-132035000D01*
X145056190Y-132082619D01*
X145008571Y-132035000D01*
X145056190Y-131987380D01*
X145056190Y-132082619D01*
X144580000Y-132320714D02*
X144580000Y-132987380D01*
X144580000Y-132415952D02*
X144532380Y-132368333D01*
X144437142Y-132320714D01*
X144294285Y-132320714D01*
X144199047Y-132368333D01*
X144151428Y-132463571D01*
X144151428Y-132987380D01*
X143675238Y-132320714D02*
X143675238Y-132987380D01*
X143675238Y-132415952D02*
X143627619Y-132368333D01*
X143532380Y-132320714D01*
X143389523Y-132320714D01*
X143294285Y-132368333D01*
X143246666Y-132463571D01*
X143246666Y-132987380D01*
X142627619Y-132987380D02*
X142722857Y-132939761D01*
X142770476Y-132892142D01*
X142818095Y-132796904D01*
X142818095Y-132511190D01*
X142770476Y-132415952D01*
X142722857Y-132368333D01*
X142627619Y-132320714D01*
X142484761Y-132320714D01*
X142389523Y-132368333D01*
X142341904Y-132415952D01*
X142294285Y-132511190D01*
X142294285Y-132796904D01*
X142341904Y-132892142D01*
X142389523Y-132939761D01*
X142484761Y-132987380D01*
X142627619Y-132987380D01*
%LPC*%
D11*
%TO.C,J3*%
X127000000Y-105410000D03*
X127000000Y-107950000D03*
X127000000Y-110490000D03*
X127000000Y-113030000D03*
X127000000Y-115570000D03*
X127000000Y-118110000D03*
X127000000Y-120650000D03*
X127000000Y-123190000D03*
X127000000Y-125730000D03*
X127000000Y-128270000D03*
X127000000Y-130810000D03*
X127000000Y-133350000D03*
%TD*%
D12*
%TO.C,J1*%
X156000000Y-54100000D03*
X144760000Y-54100000D03*
D13*
X156000000Y-58100000D03*
X144760000Y-58100000D03*
%TD*%
D14*
%TO.C,J2*%
X149725000Y-63730000D03*
X150995000Y-63730000D03*
%TD*%
D11*
%TO.C,J4*%
X173990000Y-105410000D03*
X173990000Y-107950000D03*
X173990000Y-110490000D03*
X173990000Y-113030000D03*
X173990000Y-115570000D03*
X173990000Y-118110000D03*
X173990000Y-120650000D03*
X173990000Y-123190000D03*
X173990000Y-125730000D03*
X173990000Y-128270000D03*
X173990000Y-130810000D03*
X173990000Y-133350000D03*
%TD*%
M02*
