M48
; DRILL file {KiCad 6.0.7-f9a2dced07~116~ubuntu20.04.1} date Tue 13 Sep 2022 07:06:23 PM
; FORMAT={-:-/ absolute / metric / decimal}
; #@! TF.CreationDate,2022-09-13T19:06:23+02:00
; #@! TF.GenerationSoftware,Kicad,Pcbnew,6.0.7-f9a2dced07~116~ubuntu20.04.1
; #@! TF.FileFunction,Plated,1,2,PTH
FMAT,2
METRIC
; #@! TA.AperFunction,Plated,PTH,ViaDrill
T1C0.400
; #@! TA.AperFunction,Plated,PTH,ComponentDrill
T2C0.600
; #@! TA.AperFunction,Plated,PTH,ComponentDrill
T3C0.650
; #@! TA.AperFunction,Plated,PTH,ComponentDrill
T4C1.000
%
G90
G05
T1
X128.89Y-87.76
X129.606Y-105.31
X131.76Y-85.14
X133.56Y-99.35
X133.95Y-95.654
X134.02Y-90.13
X134.57Y-93.32
X135.0Y-95.654
X135.29Y-99.39
X135.49Y-88.15
X137.51Y-86.37
X138.2Y-97.17
X139.72Y-93.28
X145.71Y-99.57
X147.28Y-99.1
X147.44Y-123.56
X148.07Y-70.26
X148.4Y-101.1
X149.72Y-61.61
X149.928Y-101.148
X151.79Y-101.77
X152.02Y-100.4
X152.11Y-120.64
X157.48Y-97.82
X157.53Y-122.77
X158.66Y-97.13
X159.4Y-87.0
X159.41Y-84.487
X159.41Y-85.83
X159.68Y-75.78
X160.39Y-91.63
X167.93Y-87.57
X170.17Y-82.86
X174.02Y-85.39
T3
X149.725Y-63.73
X150.995Y-63.73
T4
X127.0Y-105.41
X127.0Y-107.95
X127.0Y-110.49
X127.0Y-113.03
X127.0Y-115.57
X127.0Y-118.11
X127.0Y-120.65
X127.0Y-123.19
X127.0Y-125.73
X127.0Y-128.27
X127.0Y-130.81
X127.0Y-133.35
X173.99Y-105.41
X173.99Y-107.95
X173.99Y-110.49
X173.99Y-113.03
X173.99Y-115.57
X173.99Y-118.11
X173.99Y-120.65
X173.99Y-123.19
X173.99Y-125.73
X173.99Y-128.27
X173.99Y-130.81
X173.99Y-133.35
T2
X144.76Y-54.7G85X144.76Y-53.5
G05
X144.76Y-58.5G85X144.76Y-57.7
G05
X156.0Y-54.7G85X156.0Y-53.5
G05
X156.0Y-58.5G85X156.0Y-57.7
G05
T0
M30
