G04 #@! TF.GenerationSoftware,KiCad,Pcbnew,6.0.11-2627ca5db0~126~ubuntu22.04.1*
G04 #@! TF.CreationDate,2023-08-07T18:38:46+02:00*
G04 #@! TF.ProjectId,Qoobinoo,516f6f62-696e-46f6-9f2e-6b696361645f,rev?*
G04 #@! TF.SameCoordinates,Original*
G04 #@! TF.FileFunction,Paste,Top*
G04 #@! TF.FilePolarity,Positive*
%FSLAX46Y46*%
G04 Gerber Fmt 4.6, Leading zero omitted, Abs format (unit mm)*
G04 Created by KiCad (PCBNEW 6.0.11-2627ca5db0~126~ubuntu22.04.1) date 2023-08-07 18:38:46*
%MOMM*%
%LPD*%
G01*
G04 APERTURE LIST*
G04 Aperture macros list*
%AMRoundRect*
0 Rectangle with rounded corners*
0 $1 Rounding radius*
0 $2 $3 $4 $5 $6 $7 $8 $9 X,Y pos of 4 corners*
0 Add a 4 corners polygon primitive as box body*
4,1,4,$2,$3,$4,$5,$6,$7,$8,$9,$2,$3,0*
0 Add four circle primitives for the rounded corners*
1,1,$1+$1,$2,$3*
1,1,$1+$1,$4,$5*
1,1,$1+$1,$6,$7*
1,1,$1+$1,$8,$9*
0 Add four rect primitives between the rounded corners*
20,1,$1+$1,$2,$3,$4,$5,0*
20,1,$1+$1,$4,$5,$6,$7,0*
20,1,$1+$1,$6,$7,$8,$9,0*
20,1,$1+$1,$8,$9,$2,$3,0*%
%AMRotRect*
0 Rectangle, with rotation*
0 The origin of the aperture is its center*
0 $1 length*
0 $2 width*
0 $3 Rotation angle, in degrees counterclockwise*
0 Add horizontal line*
21,1,$1,$2,0,0,$3*%
G04 Aperture macros list end*
%ADD10RoundRect,0.200000X-0.800000X0.200000X-0.800000X-0.200000X0.800000X-0.200000X0.800000X0.200000X0*%
%ADD11RoundRect,0.250000X-0.475000X0.250000X-0.475000X-0.250000X0.475000X-0.250000X0.475000X0.250000X0*%
%ADD12RoundRect,0.250000X-0.325000X-0.650000X0.325000X-0.650000X0.325000X0.650000X-0.325000X0.650000X0*%
%ADD13RoundRect,0.250000X0.312500X0.625000X-0.312500X0.625000X-0.312500X-0.625000X0.312500X-0.625000X0*%
%ADD14RoundRect,0.250000X0.625000X-0.375000X0.625000X0.375000X-0.625000X0.375000X-0.625000X-0.375000X0*%
%ADD15RoundRect,0.250000X-0.262500X-0.450000X0.262500X-0.450000X0.262500X0.450000X-0.262500X0.450000X0*%
%ADD16RoundRect,0.250000X-0.689429X-0.229810X-0.229810X-0.689429X0.689429X0.229810X0.229810X0.689429X0*%
%ADD17RoundRect,0.250000X-0.625000X0.312500X-0.625000X-0.312500X0.625000X-0.312500X0.625000X0.312500X0*%
%ADD18RoundRect,0.200000X0.800000X-0.200000X0.800000X0.200000X-0.800000X0.200000X-0.800000X-0.200000X0*%
%ADD19RoundRect,0.250000X0.625000X-0.312500X0.625000X0.312500X-0.625000X0.312500X-0.625000X-0.312500X0*%
%ADD20RoundRect,0.250000X0.325000X0.650000X-0.325000X0.650000X-0.325000X-0.650000X0.325000X-0.650000X0*%
%ADD21R,1.400000X1.200000*%
%ADD22RoundRect,0.250000X-0.229810X0.689429X-0.689429X0.229810X0.229810X-0.689429X0.689429X-0.229810X0*%
%ADD23RotRect,1.160000X1.160000X45.000000*%
%ADD24RotRect,1.500000X0.550000X45.000000*%
%ADD25RotRect,1.500000X0.550000X135.000000*%
%ADD26R,2.400000X1.500000*%
%ADD27R,1.050000X1.500000*%
%ADD28R,0.300000X0.700000*%
%ADD29C,0.650000*%
%ADD30O,0.950000X1.800000*%
%ADD31R,0.700000X0.350000*%
%ADD32O,0.950000X2.280000*%
%ADD33O,1.330000X1.980000*%
%ADD34RoundRect,0.243750X-0.243750X-0.456250X0.243750X-0.456250X0.243750X0.456250X-0.243750X0.456250X0*%
%ADD35RoundRect,0.250000X0.475000X-0.250000X0.475000X0.250000X-0.475000X0.250000X-0.475000X-0.250000X0*%
%ADD36R,1.500000X1.100000*%
G04 APERTURE END LIST*
D10*
X128650000Y-75160000D03*
X128650000Y-79360000D03*
D11*
X156440000Y-106350000D03*
X156440000Y-108250000D03*
D12*
X154545000Y-77740000D03*
X157495000Y-77740000D03*
X148785000Y-77630000D03*
X151735000Y-77630000D03*
D13*
X153005000Y-122810000D03*
X150080000Y-122810000D03*
D14*
X129100000Y-58582500D03*
X129100000Y-55782500D03*
D15*
X137265000Y-95650000D03*
X139090000Y-95650000D03*
D16*
X160908768Y-84888768D03*
X162994734Y-86974734D03*
D17*
X165240000Y-61277500D03*
X165240000Y-64202500D03*
D18*
X172380000Y-79360000D03*
X172380000Y-75160000D03*
D19*
X146407522Y-127812500D03*
X146407522Y-124887500D03*
X172380000Y-85802500D03*
X172380000Y-82877500D03*
D17*
X128650000Y-83467500D03*
X128650000Y-86392500D03*
D14*
X165240000Y-58622500D03*
X165240000Y-55822500D03*
D15*
X137315000Y-98650000D03*
X139140000Y-98650000D03*
D20*
X141425000Y-102410000D03*
X138475000Y-102410000D03*
D19*
X156180000Y-127812500D03*
X156180000Y-124887500D03*
D21*
X152420000Y-106500000D03*
X150220000Y-106500000D03*
X150220000Y-108100000D03*
X152420000Y-108100000D03*
D17*
X171160000Y-61377500D03*
X171160000Y-64302500D03*
D22*
X140244734Y-87885266D03*
X138158768Y-89971232D03*
D23*
X151130000Y-89737360D03*
X152190660Y-92919340D03*
X150069340Y-92919340D03*
X151130000Y-93980000D03*
X151130000Y-91858680D03*
X149008680Y-91858680D03*
X150069340Y-90798020D03*
X152190660Y-90798020D03*
X153251320Y-91858680D03*
D24*
X144271064Y-93060762D03*
X144836750Y-93626447D03*
X145402435Y-94192132D03*
X145968120Y-94757818D03*
X146533806Y-95323503D03*
X147099491Y-95889189D03*
X147665177Y-96454874D03*
X148230862Y-97020560D03*
X148796548Y-97586245D03*
X149362233Y-98151930D03*
X149927918Y-98717616D03*
D25*
X152332082Y-98717616D03*
X152897767Y-98151930D03*
X153463452Y-97586245D03*
X154029138Y-97020560D03*
X154594823Y-96454874D03*
X155160509Y-95889189D03*
X155726194Y-95323503D03*
X156291880Y-94757818D03*
X156857565Y-94192132D03*
X157423250Y-93626447D03*
X157988936Y-93060762D03*
D24*
X157988936Y-90656598D03*
X157423250Y-90090913D03*
X156857565Y-89525228D03*
X156291880Y-88959542D03*
X155726194Y-88393857D03*
X155160509Y-87828171D03*
X154594823Y-87262486D03*
X154029138Y-86696800D03*
X153463452Y-86131115D03*
X152897767Y-85565430D03*
X152332082Y-84999744D03*
D25*
X149927918Y-84999744D03*
X149362233Y-85565430D03*
X148796548Y-86131115D03*
X148230862Y-86696800D03*
X147665177Y-87262486D03*
X147099491Y-87828171D03*
X146533806Y-88393857D03*
X145968120Y-88959542D03*
X145402435Y-89525228D03*
X144836750Y-90090913D03*
X144271064Y-90656598D03*
D14*
X171160000Y-58622500D03*
X171160000Y-55822500D03*
D26*
X154570000Y-67540000D03*
D27*
X152195000Y-67540000D03*
D17*
X129100000Y-61965000D03*
X129100000Y-64890000D03*
D28*
X152975000Y-58610000D03*
X152475000Y-58610000D03*
X151975000Y-58610000D03*
X151475000Y-58610000D03*
X150975000Y-58610000D03*
X150475000Y-58610000D03*
X149975000Y-58610000D03*
X149475000Y-58610000D03*
X148975000Y-58610000D03*
X148475000Y-58610000D03*
X147975000Y-58610000D03*
X147475000Y-58610000D03*
D29*
X147425000Y-57500000D03*
X147825000Y-56600000D03*
X148625000Y-56600000D03*
X149025000Y-57500000D03*
X149425000Y-56600000D03*
X149825000Y-57500000D03*
X150625000Y-57500000D03*
X151025000Y-56600000D03*
X151425000Y-57500000D03*
X151825000Y-56600000D03*
X152625000Y-56600000D03*
X153025000Y-57500000D03*
D30*
X145930000Y-58330000D03*
D31*
X153600000Y-59395000D03*
D32*
X145650000Y-53440000D03*
D33*
X154615000Y-56350000D03*
D30*
X154520000Y-58330000D03*
D33*
X145835000Y-56350000D03*
D32*
X154800000Y-53440000D03*
D31*
X146850000Y-59395000D03*
D20*
X146697500Y-102410000D03*
X143747500Y-102410000D03*
D34*
X146182500Y-67540000D03*
X148057500Y-67540000D03*
D35*
X146050000Y-108250000D03*
X146050000Y-106350000D03*
D36*
X149925044Y-125570000D03*
X152925044Y-125570000D03*
X152925044Y-127070000D03*
X149925044Y-127070000D03*
M02*
