%TF.GenerationSoftware,KiCad,Pcbnew,6.0.11-2627ca5db0~126~ubuntu22.04.1*%
%TF.CreationDate,2023-08-07T18:40:06+02:00*%
%TF.ProjectId,Qoobinoo,516f6f62-696e-46f6-9f2e-6b696361645f,rev?*%
%TF.SameCoordinates,Original*%
%TF.FileFunction,Drillmap*%
%TF.FilePolarity,Positive*%
%FSLAX45Y45*%
G04 Gerber Fmt 4.5, Leading zero omitted, Abs format (unit mm)*
G04 Created by KiCad (PCBNEW 6.0.11-2627ca5db0~126~ubuntu22.04.1) date 2023-08-07 18:40:06*
%MOMM*%
%LPD*%
G01*
G04 APERTURE LIST*
%ADD10C,0.100000*%
%ADD11C,0.200000*%
G04 APERTURE END LIST*
D10*
X14689000Y-5200000D02*
X14680000Y-5200000D01*
X17738000Y-5400000D02*
G75*
G03*
X17538000Y-5200000I-200000J0D01*
G01*
X12538000Y-5200000D02*
G75*
G03*
X12338000Y-5400000I0J-200000D01*
G01*
X15350000Y-5547000D02*
X14690000Y-5547000D01*
X15800000Y-5200000D02*
X17538000Y-5200000D01*
X17538000Y-13600000D02*
G75*
G03*
X17738000Y-13400000I0J200000D01*
G01*
X14690000Y-5547000D02*
X14689000Y-5200000D01*
X12338000Y-13400000D02*
G75*
G03*
X12538000Y-13600000I200000J0D01*
G01*
X17738000Y-5400000D02*
X17738000Y-13400000D01*
X12338000Y-5400000D02*
X12338000Y-13400000D01*
X14276000Y-5200000D02*
X14680000Y-5200000D01*
X14276000Y-5200000D02*
X12538000Y-5200000D01*
X15800000Y-5200000D02*
X15350000Y-5200000D01*
X15350000Y-5547000D02*
X15350000Y-5200000D01*
X17538000Y-13600000D02*
X12538000Y-13600000D01*
D11*
X12590619Y-13915476D02*
X12590619Y-13715476D01*
X12638238Y-13715476D01*
X12666809Y-13725000D01*
X12685857Y-13744048D01*
X12695381Y-13763095D01*
X12704905Y-13801190D01*
X12704905Y-13829762D01*
X12695381Y-13867857D01*
X12685857Y-13886905D01*
X12666809Y-13905952D01*
X12638238Y-13915476D01*
X12590619Y-13915476D01*
X12790619Y-13915476D02*
X12790619Y-13782143D01*
X12790619Y-13820238D02*
X12800143Y-13801190D01*
X12809667Y-13791667D01*
X12828714Y-13782143D01*
X12847762Y-13782143D01*
X12914428Y-13915476D02*
X12914428Y-13782143D01*
X12914428Y-13715476D02*
X12904905Y-13725000D01*
X12914428Y-13734524D01*
X12923952Y-13725000D01*
X12914428Y-13715476D01*
X12914428Y-13734524D01*
X13038238Y-13915476D02*
X13019190Y-13905952D01*
X13009667Y-13886905D01*
X13009667Y-13715476D01*
X13143000Y-13915476D02*
X13123952Y-13905952D01*
X13114428Y-13886905D01*
X13114428Y-13715476D01*
X13371571Y-13915476D02*
X13371571Y-13715476D01*
X13438238Y-13858333D01*
X13504905Y-13715476D01*
X13504905Y-13915476D01*
X13685857Y-13915476D02*
X13685857Y-13810714D01*
X13676333Y-13791667D01*
X13657286Y-13782143D01*
X13619190Y-13782143D01*
X13600143Y-13791667D01*
X13685857Y-13905952D02*
X13666809Y-13915476D01*
X13619190Y-13915476D01*
X13600143Y-13905952D01*
X13590619Y-13886905D01*
X13590619Y-13867857D01*
X13600143Y-13848809D01*
X13619190Y-13839286D01*
X13666809Y-13839286D01*
X13685857Y-13829762D01*
X13781095Y-13782143D02*
X13781095Y-13982143D01*
X13781095Y-13791667D02*
X13800143Y-13782143D01*
X13838238Y-13782143D01*
X13857286Y-13791667D01*
X13866809Y-13801190D01*
X13876333Y-13820238D01*
X13876333Y-13877381D01*
X13866809Y-13896428D01*
X13857286Y-13905952D01*
X13838238Y-13915476D01*
X13800143Y-13915476D01*
X13781095Y-13905952D01*
X13962048Y-13896428D02*
X13971571Y-13905952D01*
X13962048Y-13915476D01*
X13952524Y-13905952D01*
X13962048Y-13896428D01*
X13962048Y-13915476D01*
X13962048Y-13791667D02*
X13971571Y-13801190D01*
X13962048Y-13810714D01*
X13952524Y-13801190D01*
X13962048Y-13791667D01*
X13962048Y-13810714D01*
M02*
